<svg width="90" height="90" viewBox="0 0 90 90" fill="none" xmlns="http://www.w3.org/2000/svg">
<path d="M68.5419 9.785C51.2544 10.1075 39.2119 1.3725 30.8819 1.53C22.5519 1.6875 5.14191 6.8025 5.85941 45.13C6.57691 83.4575 30.2194 88.64 39.3844 88.47C82.2919 87.6675 99.1619 9.2125 68.5419 9.785Z" fill="white"/>
<path d="M73.125 36.625V41.575L65.625 45.5V30.375L71.15 33.325C72.35 33.975 73.125 35.25 73.125 36.625Z" fill="#F3F3F1"/>
<path d="M24.375 30.375V45.5L16.875 41.575V36.625C16.875 35.25 17.65 33.975 18.85 33.325L24.375 30.375Z" fill="#F3F3F1"/>
<path d="M73.125 41.575V66.875C73.125 68.95 71.45 70.625 69.375 70.625H20.625C18.55 70.625 16.875 68.95 16.875 66.875V41.575L24.375 45.5H24.4L42.675 55.05C44.125 55.8 45.875 55.8 47.325 55.05L65.6 45.5H65.625L73.125 41.575Z" fill="#F3F3F1"/>
<path d="M65.625 21.875V45.5H65.6L47.325 55.05C45.875 55.8 44.125 55.8 42.675 55.05L24.4 45.5H24.375V21.875C24.375 19.125 26.625 16.875 29.375 16.875H60.625C63.375 16.875 65.625 19.125 65.625 21.875Z" fill="#18B3D4"/>
<path d="M71.25 33.3975C71.215 33.3775 71.1875 33.345 71.15 33.325L65.625 30.375V45.5L71.25 42.5575V33.3975Z" fill="#D5DBE1"/>
<path d="M22.5 41.575V36.625C22.5 35.2925 23.2375 34.065 24.375 33.3975V30.375L18.85 33.325C17.65 33.975 16.875 35.25 16.875 36.625V41.575L24.375 45.5V42.5575L22.5 41.575Z" fill="#D5DBE1"/>
<path d="M22.5 66.875V44.5175L16.875 41.575V66.875C16.875 68.95 18.55 70.625 20.625 70.625H26.25C24.175 70.625 22.5 68.95 22.5 66.875Z" fill="#D5DBE1"/>
<path d="M30.025 45.5H30V21.875C30 19.125 32.25 16.875 35 16.875H29.375C26.625 16.875 24.375 19.125 24.375 21.875V45.5H24.4L42.675 55.05C44.125 55.8 45.875 55.8 47.325 55.05L47.8125 54.795L30.025 45.5Z" fill="#1092AD"/>
<path d="M77.5 31.625C75.4325 31.625 73.75 29.9425 73.75 27.875C73.75 25.8075 75.4325 24.125 77.5 24.125C79.5675 24.125 81.25 25.8075 81.25 27.875C81.25 29.9425 79.5675 31.625 77.5 31.625ZM77.5 26.625C76.81 26.625 76.25 27.185 76.25 27.875C76.25 28.565 76.81 29.125 77.5 29.125C78.19 29.125 78.75 28.565 78.75 27.875C78.75 27.185 78.19 26.625 77.5 26.625Z" fill="#A4AFC1"/>
<path d="M16.8584 9.76016L18.6262 7.99239L22.1617 11.5279L20.3939 13.2957L16.8584 9.76016Z" fill="#A4AFC1"/>
<path d="M16.416 21.6904L19.9515 18.1549L21.7193 19.9226L18.1838 23.4582L16.416 21.6904Z" fill="#A4AFC1"/>
<path d="M26.5811 11.5306L30.1166 7.99511L31.8843 9.76287L28.3488 13.2984L26.5811 11.5306Z" fill="#A4AFC1"/>
<path d="M69.375 72.5H20.625C17.5225 72.5 15 69.9775 15 66.875V36.625C15 34.56 16.1325 32.665 17.9575 31.6775L23.49 28.7225L25.2575 32.03L19.7325 34.98C19.14 35.3 18.75 35.9475 18.75 36.625V66.875C18.75 67.91 19.59 68.75 20.625 68.75H69.375C70.41 68.75 71.25 67.91 71.25 66.875V36.625C71.25 35.9475 70.86 35.3 70.2575 34.975L64.74 32.03L66.5075 28.7225L72.0325 31.6725C73.8675 32.6625 75 34.56 75 36.625V66.875C75 69.9775 72.4775 72.5 69.375 72.5Z" fill="#383838"/>
<path d="M58.7979 46.9206L72.2318 39.9004L73.9681 43.2229L60.5341 50.2431L58.7979 46.9206Z" fill="#383838"/>
<path d="M44.9978 57.49C43.9028 57.49 42.8103 57.2325 41.8153 56.7175L16.0078 43.235L17.7428 39.9125L43.5428 53.3875C44.4378 53.85 45.5628 53.85 46.4653 53.3825L54.2378 49.3225L55.9728 52.645L48.1928 56.71C47.1903 57.23 46.0953 57.49 44.9978 57.49Z" fill="#383838"/>
<path d="M67.5 45.5H63.75V21.875C63.75 20.1525 62.3475 18.75 60.625 18.75H29.375C27.6525 18.75 26.25 20.1525 26.25 21.875V45.5H22.5V21.875C22.5 18.085 25.5825 15 29.375 15H60.625C64.4175 15 67.5 18.085 67.5 21.875V45.5Z" fill="#383838"/>
<path d="M5 68.75H85V72.5H5V68.75Z" fill="#383838"/>
</svg>
