<svg width="36" height="36" viewBox="0 0 36 36" fill="none" xmlns="http://www.w3.org/2000/svg">
<path d="M31.7109 9.49219L24.3281 7.38281L22.2188 0H7.45312C5.70565 0 4.28906 1.41659 4.28906 3.16406V32.8359C4.28906 34.5834 5.70565 36 7.45312 36H28.5469C30.2944 36 31.7109 34.5834 31.7109 32.8359V9.49219Z" fill="#4175DF"/>
<path d="M31.7109 9.49219V32.8359C31.7109 34.5834 30.2944 36 28.5469 36H18V0H22.2188L24.3281 7.38281L31.7109 9.49219Z" fill="#4175DF"/>
<path d="M31.7109 9.49219H24.3281C23.168 9.49219 22.2188 8.54297 22.2188 7.38281V0C22.493 0 22.7672 0.105469 22.957 0.316477L31.3945 8.75398C31.6055 8.94375 31.7109 9.21797 31.7109 9.49219Z" fill="#80AEF8"/>
<path d="M24.3281 16.9453H11.6719C11.0889 16.9453 10.6172 16.4736 10.6172 15.8906C10.6172 15.3077 11.0889 14.8359 11.6719 14.8359H24.3281C24.9111 14.8359 25.3828 15.3077 25.3828 15.8906C25.3828 16.4736 24.9111 16.9453 24.3281 16.9453Z" fill="#FFF5F5"/>
<path d="M24.3281 21.1641H11.6719C11.0889 21.1641 10.6172 20.6923 10.6172 20.1094C10.6172 19.5264 11.0889 19.0547 11.6719 19.0547H24.3281C24.9111 19.0547 25.3828 19.5264 25.3828 20.1094C25.3828 20.6923 24.9111 21.1641 24.3281 21.1641Z" fill="#FFF5F5"/>
<path d="M24.3281 25.3828H11.6719C11.0889 25.3828 10.6172 24.9111 10.6172 24.3281C10.6172 23.7452 11.0889 23.2734 11.6719 23.2734H24.3281C24.9111 23.2734 25.3828 23.7452 25.3828 24.3281C25.3828 24.9111 24.9111 25.3828 24.3281 25.3828Z" fill="#FFF5F5"/>
<path d="M20.1094 29.6016H11.6719C11.0889 29.6016 10.6172 29.1298 10.6172 28.5469C10.6172 27.9639 11.0889 27.4922 11.6719 27.4922H20.1094C20.6923 27.4922 21.1641 27.9639 21.1641 28.5469C21.1641 29.1298 20.6923 29.6016 20.1094 29.6016Z" fill="#FFF5F5"/>
<path d="M18 29.6016H20.1094C20.6923 29.6016 21.1641 29.1298 21.1641 28.5469C21.1641 27.9639 20.6923 27.4922 20.1094 27.4922H18V29.6016Z" fill="white"/>
<path d="M18 25.3828H24.3281C24.9111 25.3828 25.3828 24.9111 25.3828 24.3281C25.3828 23.7452 24.9111 23.2734 24.3281 23.2734H18V25.3828Z" fill="white"/>
<path d="M18 21.1641H24.3281C24.9111 21.1641 25.3828 20.6923 25.3828 20.1094C25.3828 19.5264 24.9111 19.0547 24.3281 19.0547H18V21.1641Z" fill="white"/>
<path d="M18 16.9453H24.3281C24.9111 16.9453 25.3828 16.4736 25.3828 15.8906C25.3828 15.3077 24.9111 14.8359 24.3281 14.8359H18V16.9453Z" fill="white"/>
</svg>
