<svg width="28" height="36" viewBox="0 0 28 36" fill="none" xmlns="http://www.w3.org/2000/svg">
<path d="M27.7109 9.49219L20.3281 7.38281L18.2188 0H2.39844C1.23343 0 0.289062 0.944367 0.289062 2.10938V33.8906C0.289062 35.0556 1.23343 36 2.39844 36H25.6016C26.7666 36 27.7109 35.0556 27.7109 33.8906V9.49219Z" fill="#00A66C"/>
<path d="M27.7111 9.49219V33.8906C27.7111 35.0556 26.7667 36 25.6017 36H14.1689V0H18.2189L20.3282 7.38281L27.7111 9.49219Z" fill="#00A66C"/>
<path d="M20.3281 14.8359H7.67188C7.08891 14.8359 6.61719 15.3077 6.61719 15.8906V28.5469C6.61719 29.1298 7.08891 29.6016 7.67188 29.6016H20.3281C20.9111 29.6016 21.3828 29.1298 21.3828 28.5469V15.8906C21.3828 15.3077 20.9111 14.8359 20.3281 14.8359ZM8.72656 21.1641H12.9453V23.2734H8.72656V21.1641ZM15.0547 21.1641H19.2734V23.2734H15.0547V21.1641ZM19.2734 19.0547H15.0547V16.9453H19.2734V19.0547ZM12.9453 16.9453V19.0547H8.72656V16.9453H12.9453ZM8.72656 25.3828H12.9453V27.4922H8.72656V25.3828ZM15.0547 27.4922V25.3828H19.2734V27.4922H15.0547Z" fill="#FFF5F5"/>
<path d="M20.328 14.8359H14.1709V29.6016H20.328C20.911 29.6016 21.3827 29.1298 21.3827 28.5469V15.8906C21.3827 15.3077 20.911 14.8359 20.328 14.8359ZM19.2733 27.4922H15.0546V25.3828H19.2733V27.4922ZM19.2733 23.2734H15.0546V21.1641H19.2733V23.2734ZM19.2733 19.0547H15.0546V16.9453H19.2733V19.0547Z" fill="white"/>
<path d="M27.7109 9.49219H20.3281C19.168 9.49219 18.2188 8.54297 18.2188 7.38281V0C18.493 0 18.7672 0.105469 18.957 0.316477L27.3945 8.75398C27.6055 8.94375 27.7109 9.21797 27.7109 9.49219Z" fill="#A0DEB0"/>
</svg>
