<svg width="27" height="36" viewBox="0 0 27 36" fill="none" xmlns="http://www.w3.org/2000/svg">
<path d="M2.49998 0H16.3671L26.4999 10.0935V33.75C26.4999 34.9931 25.492 36 24.2499 36H2.49998C1.25794 36 0.25 34.9931 0.25 33.75V2.24998C0.25 1.0069 1.25806 0 2.49998 0Z" fill="#E2574C"/>
<path d="M26.4674 10.125H18.625C17.3829 10.125 16.375 9.11701 16.375 7.87498V0.0224609L26.4674 10.125Z" fill="#B53629"/>
<path d="M20.674 17.0583C21.0509 17.0583 21.2354 16.7298 21.2354 16.4115C21.2354 16.0818 21.043 15.7634 20.674 15.7634H18.5275C18.1079 15.7634 17.8739 16.111 17.8739 16.4947V21.7698C17.8739 22.24 18.1416 22.501 18.5039 22.501C18.8639 22.501 19.1328 22.24 19.1328 21.7698V20.3219H20.4311C20.8338 20.3219 21.0352 19.9923 21.0352 19.665C21.0352 19.3444 20.8338 19.0259 20.4311 19.0259H19.1328V17.0583H20.674ZM13.4189 15.7634H11.8483C11.422 15.7634 11.1193 16.056 11.1193 16.4901V21.7743C11.1193 22.3131 11.5547 22.4819 11.8663 22.4819H13.5144C15.4651 22.4819 16.7533 21.1983 16.7533 19.2171C16.7522 17.1224 15.5395 15.7634 13.4189 15.7634ZM13.4943 21.1793H12.5369V17.0662H13.3998C14.7059 17.0662 15.274 17.9426 15.274 19.152C15.274 20.2838 14.716 21.1793 13.4943 21.1793ZM7.74101 15.7634H6.18515C5.74526 15.7634 5.5 16.0536 5.5 16.4947V21.7698C5.5 22.24 5.78123 22.501 6.1592 22.501C6.53716 22.501 6.81839 22.24 6.81839 21.7698V20.2296H7.79375C8.99748 20.2296 9.99088 19.3769 9.99088 18.0055C9.99099 16.6635 9.03252 15.7634 7.74101 15.7634ZM7.71517 18.9923H6.81851V17.0021H7.71517C8.26868 17.0021 8.6208 17.4341 8.6208 17.9977C8.61963 18.5603 8.26868 18.9923 7.71517 18.9923Z" fill="white"/>
</svg>
