<svg width="95" height="40" viewBox="0 0 95 40" fill="none" xmlns="http://www.w3.org/2000/svg">
<g clip-path="url(#clip0_56_91)">
<path d="M30.1897 7.46671H2.0129V2.24312H30.1897V7.46671ZM32.2026 0.230469H0V9.47832H32.2026V0.230469Z" fill="#00B188"/>
<path d="M2.0129 24.7627H0V15.5148H2.0129V19.1693H5.60932V15.5148H7.62222V24.7627H5.60932V20.9302H2.0129V24.7627Z" fill="#231F20"/>
<path d="M10.6706 20.7086H13.0682C13.0235 20.0285 12.7428 19.5545 11.9581 19.5545C11.366 19.5545 10.8479 19.8065 10.6706 20.7086ZM12.1948 24.9111C10.1525 24.9111 8.76166 23.6236 8.76166 21.5087C8.76166 19.4511 10.1232 18.0309 11.9287 18.0309C13.8969 18.0309 14.8737 19.3477 14.8737 21.316V22.0561H10.6706C10.9079 23.0762 11.7067 23.3423 12.5061 23.3423C13.2015 23.3423 13.7043 23.1949 14.3257 22.8096H14.4003V24.3337C13.8676 24.7191 13.1122 24.9111 12.1948 24.9111Z" fill="#231F20"/>
<path d="M20.127 20.8862L19.0909 24.7627H17.33L15.3171 18.2519V18.1779H17.2414L18.3362 22.0697L19.3723 18.1779H20.9411L21.9919 22.0697L23.1021 18.1779H24.9523V18.2519L22.9394 24.7627H21.1778L20.127 20.8862Z" fill="#231F20"/>
<path d="M28.2221 24.9111C26.6239 24.9111 25.9725 24.275 25.9725 22.7808V15.5159H27.9261V22.6475C27.9261 23.1062 28.1035 23.2689 28.4882 23.2689C28.6215 23.2689 28.8142 23.2249 28.9322 23.1802H28.9622V24.7931C28.7995 24.8518 28.5182 24.9111 28.2221 24.9111Z" fill="#231F20"/>
<path d="M31.4192 20.7086H33.8168C33.7721 20.0285 33.4914 19.5545 32.7066 19.5545C32.1152 19.5545 31.5965 19.8065 31.4192 20.7086ZM32.9433 24.9111C30.9011 24.9111 29.5103 23.6236 29.5103 21.5087C29.5103 19.4511 30.8718 18.0309 32.6773 18.0309C34.6455 18.0309 35.6223 19.3477 35.6223 21.316V22.0561H31.4192C31.6559 23.0762 32.4553 23.3423 33.2541 23.3423C33.9501 23.3423 34.4529 23.1949 35.0749 22.8096H35.1489V24.3337C34.6162 24.7191 33.8614 24.9111 32.9433 24.9111Z" fill="#231F20"/>
<path d="M43.6432 18.1779H45.0934V19.7462H43.6432V22.4245C43.6432 23.0019 43.8652 23.2686 44.4573 23.2686C44.62 23.2686 44.8273 23.2533 45.0494 23.1793H45.0934V24.7181C44.842 24.8074 44.4573 24.9102 43.8952 24.9102C42.3111 24.9102 41.6896 24.1854 41.6896 22.5132V19.7462H39.1887V22.4245C39.1887 23.0019 39.4107 23.2686 40.0021 23.2686C40.1655 23.2686 40.3728 23.2533 40.5948 23.1793H40.6388V24.7181C40.3875 24.8074 40.0021 24.9102 39.4407 24.9102C37.8565 24.9102 37.2351 24.1854 37.2351 22.5132V19.7462H36.2283V18.1779H37.2351V16.373H39.1887V18.1779H41.6896V16.373H43.6432V18.1779Z" fill="#231F20"/>
<path d="M51.6757 20.0574C52.6978 20.0574 53.1852 19.4807 53.1852 18.6519C53.1852 17.7931 52.6978 17.2164 51.6757 17.2164H50.4029V20.0574H51.6757ZM55.2281 18.6519C55.2281 20.6648 53.8813 21.759 51.8384 21.759H50.4029V24.7627H48.3912V15.5148H51.8384C53.8813 15.5148 55.2281 16.6097 55.2281 18.6519Z" fill="#231F20"/>
<path d="M59.5193 22.6916V22.1295C59.2233 21.9674 58.8392 21.9081 58.4392 21.9081C57.8031 21.9081 57.4184 22.1442 57.4184 22.6769C57.4184 23.2249 57.8031 23.4616 58.3799 23.4616C58.9273 23.4616 59.342 23.1803 59.5193 22.6916ZM59.5787 24.1124C59.1493 24.6305 58.5138 24.8818 57.8318 24.8818C56.545 24.8818 55.4935 24.0984 55.4935 22.7062C55.4935 21.4194 56.545 20.5613 58.0538 20.5613C58.5272 20.5613 59.0166 20.6353 59.5193 20.7827V20.6653C59.5193 19.9545 59.1199 19.6445 58.0698 19.6445C57.4031 19.6445 56.767 19.8359 56.2189 20.1472H56.1456V18.5784C56.6483 18.283 57.5371 18.031 58.4092 18.031C60.3928 18.031 61.4729 18.9778 61.4729 20.6353V24.7632H59.5787V24.1124Z" fill="#231F20"/>
<path d="M62.4644 21.4787C62.4644 19.3624 63.9598 18.0309 65.9134 18.0309C66.6088 18.0309 67.2596 18.1789 67.7483 18.5337V20.2059H67.6737C67.2443 19.8805 66.7415 19.6878 66.1648 19.6878C65.188 19.6878 64.4479 20.3545 64.4479 21.4787C64.4479 22.6028 65.188 23.2542 66.1648 23.2542C66.7415 23.2542 67.2443 23.0616 67.6737 22.7355H67.7483V24.4077C67.2596 24.7631 66.6088 24.9111 65.9134 24.9111C63.9598 24.9111 62.4644 23.5949 62.4644 21.4787Z" fill="#231F20"/>
<path d="M70.9294 21.7743V24.7627H68.9765V15.5148H70.9294V20.7822L72.8983 18.1779H75.1179V18.2519L72.7503 21.2409L75.1179 24.6887V24.7627H72.883L70.9294 21.7743Z" fill="#231F20"/>
<path d="M79.4984 22.6916V22.1295C79.203 21.9674 78.8177 21.9081 78.4183 21.9081C77.7822 21.9081 77.3975 22.1442 77.3975 22.6769C77.3975 23.2249 77.7822 23.4616 78.3583 23.4616C78.907 23.4616 79.3211 23.1803 79.4984 22.6916ZM79.5578 24.1124C79.1284 24.6305 78.4917 24.8818 77.8116 24.8818C76.5234 24.8818 75.4733 24.0984 75.4733 22.7062C75.4733 21.4194 76.5234 20.5613 78.0342 20.5613C78.5076 20.5613 78.9951 20.6353 79.4984 20.7827V20.6653C79.4984 19.9545 79.0991 19.6445 78.0483 19.6445C77.3828 19.6445 76.7454 19.8359 76.198 20.1472H76.124V18.5784C76.6274 18.283 77.5155 18.031 78.3883 18.031C80.3725 18.031 81.4527 18.9778 81.4527 20.6353V24.7632H79.5578V24.1124Z" fill="#231F20"/>
<path d="M84.7376 19.2433C85.0924 18.5179 85.611 18.1039 86.3365 18.1039C86.6025 18.1039 86.8686 18.1632 86.9713 18.2225V20.0868H86.8979C86.6759 19.9974 86.4098 19.9388 86.0398 19.9388C85.433 19.9388 84.9596 20.2941 84.7963 20.9742V24.7627H82.8434V18.1779H84.7376V19.2433Z" fill="#231F20"/>
<path d="M92.1519 22.5288V20.4126C91.8265 19.9392 91.3978 19.7325 90.9084 19.7325C90.0509 19.7325 89.4735 20.3545 89.4735 21.4787C89.4735 22.6028 90.0509 23.2096 90.9084 23.2096C91.3978 23.2096 91.8265 23.0022 92.1519 22.5288ZM92.2106 24.083C91.7965 24.6157 91.1451 24.9111 90.2577 24.9111C88.5701 24.9111 87.49 23.3729 87.49 21.4787C87.49 19.5844 88.5701 18.0309 90.2577 18.0309C91.1158 18.0309 91.7372 18.2976 92.1519 18.7857V15.5159H94.1055V24.7631H92.2106V24.083Z" fill="#231F20"/>
<path d="M0 27.7831H5.71268V28.9072H1.28749V31.7329H5.29798V32.8284H1.28749V35.9061H5.71268V37.0303H0V27.7831Z" fill="#231F20"/>
<path d="M10.4332 30.3867C11.898 30.3867 12.7121 31.3488 12.7121 32.9311V37.0303H11.484V32.9611C11.484 32.1176 11.0546 31.5109 10.1225 31.5109C9.35305 31.5109 8.70165 31.9996 8.47962 32.6944V37.0303H7.25146V30.5201H8.47962V31.4669C8.86434 30.8601 9.51574 30.3867 10.4332 30.3867Z" fill="#231F20"/>
<path d="M16.0132 30.52H17.6854V31.5708H16.0132V35.0773C16.0132 35.8167 16.3979 36.0688 17.0933 36.0688C17.2854 36.0688 17.4927 36.0394 17.6407 35.9801H17.6854V37.0302C17.508 37.1042 17.256 37.1636 16.9159 37.1636C15.3911 37.1636 14.785 36.4675 14.785 35.196V31.5708H13.6602V30.52H14.785V28.7898H16.0132V30.52Z" fill="#231F20"/>
<path d="M19.7424 33.1384H22.9835C22.9395 32.1769 22.4654 31.4375 21.4593 31.4375C20.5272 31.4375 19.9198 32.1329 19.7424 33.1384ZM21.6813 37.1636C19.7718 37.1636 18.4696 35.8908 18.4696 33.8491C18.4696 31.8069 19.6831 30.3867 21.4446 30.3867C23.2355 30.3867 24.1676 31.6742 24.1676 33.5825V34.1452H19.6978C19.8311 35.462 20.6752 36.0981 21.844 36.0981C22.5694 36.0981 23.0868 35.9354 23.6642 35.506H23.7089V36.5868C23.1762 37.0009 22.4801 37.1636 21.6813 37.1636Z" fill="#231F20"/>
<path d="M26.8459 31.5262C27.1273 30.8308 27.7493 30.4167 28.4588 30.4167C28.7408 30.4167 28.9921 30.4607 29.0955 30.5201V31.7329H29.0515C28.8735 31.6449 28.5774 31.6002 28.2814 31.6002C27.616 31.6002 27.0532 32.0436 26.8459 32.7837V37.0303H25.6177V30.5201H26.8459V31.5262Z" fill="#231F20"/>
<path d="M33.0614 36.054C34.2749 36.054 34.9856 35.0925 34.9856 33.775C34.9856 32.4735 34.2749 31.4974 33.0614 31.4974C32.3953 31.4974 31.7739 31.8968 31.4485 32.5322V35.0338C31.7739 35.6693 32.3953 36.054 33.0614 36.054ZM33.2687 30.3872C35.207 30.3872 36.2431 31.9708 36.2431 33.775C36.2431 35.5812 35.207 37.1641 33.2687 37.1641C32.4693 37.1641 31.7886 36.75 31.4485 36.3054V39.5317H30.2197V30.5206H31.4485V31.26C31.7886 30.8013 32.4693 30.3872 33.2687 30.3872Z" fill="#231F20"/>
<path d="M38.922 31.5262C39.2027 30.8308 39.8248 30.4167 40.5349 30.4167C40.8162 30.4167 41.0676 30.4607 41.171 30.5201V31.7329H41.1269C40.9496 31.6449 40.6535 31.6002 40.3575 31.6002C39.6914 31.6002 39.1294 32.0436 38.922 32.7837V37.0303H37.6938V30.5201H38.922V31.5262Z" fill="#231F20"/>
<path d="M42.9472 27.8864C43.3766 27.8864 43.7313 28.2265 43.7313 28.6559C43.7313 29.0852 43.3766 29.4253 42.9472 29.4253C42.5332 29.4253 42.1625 29.0852 42.1625 28.6559C42.1625 28.2265 42.5332 27.8864 42.9472 27.8864Z" fill="#231F20"/>
<path d="M42.3405 37.0307H43.5692V30.5205H42.3405V37.0307Z" fill="#231F20"/>
<path d="M47.9498 33.2277C48.8819 33.5231 49.9174 33.9078 49.9174 35.1507C49.9174 36.4828 48.8226 37.1636 47.4171 37.1636C46.5583 37.1636 45.7002 36.9562 45.2115 36.5715V35.4027H45.2708C45.8189 35.9054 46.6323 36.1275 47.4018 36.1275C48.0972 36.1275 48.7192 35.8608 48.7192 35.2987C48.7192 34.7219 48.2018 34.5886 47.1797 34.2485C46.2623 33.9525 45.2415 33.6118 45.2415 32.3843C45.2415 31.1262 46.277 30.3867 47.5944 30.3867C48.3639 30.3867 49.0446 30.5494 49.592 30.9194V32.1036H49.548C49.0159 31.6742 48.3932 31.4222 47.6238 31.4222C46.8543 31.4222 46.425 31.7629 46.425 32.2216C46.425 32.7397 46.8984 32.887 47.9498 33.2277Z" fill="#231F20"/>
<path d="M52.2563 33.1384H55.4967C55.4527 32.1769 54.9793 31.4375 53.9725 31.4375C53.0404 31.4375 52.4336 32.1329 52.2563 33.1384ZM54.1945 37.1636C52.2856 37.1636 50.9835 35.8908 50.9835 33.8491C50.9835 31.8069 52.1969 30.3867 53.9578 30.3867C55.7494 30.3867 56.6808 31.6742 56.6808 33.5825V34.1452H52.2116C52.345 35.462 53.1884 36.0981 54.3572 36.0981C55.0833 36.0981 55.6007 35.9354 56.1775 35.506H56.2221V36.5868C55.69 37.0009 54.994 37.1636 54.1945 37.1636Z" fill="#231F20"/>
</g>
<defs>
<clipPath id="clip0_56_91">
<rect width="94.1055" height="39.301" fill="white" transform="translate(0 0.230469)"/>
</clipPath>
</defs>
</svg>
