<svg width="36" height="58" viewBox="0 0 36 58" fill="none" xmlns="http://www.w3.org/2000/svg">
<path d="M25.9659 27.4876C25.9212 27.5099 25.8542 27.5323 25.7872 27.5546C25.6978 27.5769 25.4966 27.4652 25.4966 27.4652C25.4743 27.4429 25.4519 27.4429 25.4296 27.4205C25.0944 27.1523 24.7592 26.8395 24.6251 26.4372C24.6027 26.3478 24.5804 26.2361 24.558 26.1467C24.3346 25.8338 23.6865 24.5153 23.4407 24.3142L18.7253 21.6101L18.5689 21.3867C18.4795 21.409 18.3678 21.4314 18.2337 21.409C18.189 21.4984 17.9208 22.0571 17.8984 22.1465C17.7644 22.5711 17.6079 23.0851 17.6079 23.0851L17.742 24.0684L17.0269 27.711L16.0212 33.4097L15.3732 35.3092L14.3899 37.9239L13.2055 39.9799L10.5237 48.1368C10.5237 48.1368 9.67453 50.3045 9.65218 50.3268C9.13818 50.9749 8.57949 51.5559 7.97611 52.1146C7.61855 52.4498 7.30568 52.8298 7.03751 53.232C6.79168 53.6566 6.6576 54.2823 6.92577 54.707L9.80861 54.7516C10.0991 54.6846 10.2109 54.4835 10.5237 54.0812C10.8366 53.679 11.0154 53.1873 11.0601 52.6733C11.1048 52.204 12.0434 51.7794 12.3562 51.4442L16.2 44.7846C16.4682 44.0918 18.9264 40.3151 18.9264 40.3151L20.0662 36.5607L21.3176 33.6108L21.854 32.6722C22.2786 31.8453 22.9937 30.2587 23.7312 27.6887L23.91 27.7334C23.91 27.7334 23.6418 28.7167 23.53 29.1413C23.53 29.1636 23.53 29.1636 23.5077 29.186L23.6194 29.6776L23.91 30.3257L24.0217 32.0465L24.9826 34.8846L25.8765 40.0916V39.8681L25.9659 27.4876ZM14.7474 37.7004L14.9039 36.8289L15.3508 35.7338C15.3732 36.5607 15.0603 37.1417 14.7474 37.7004ZM17.5856 38.5496C17.3174 38.0803 18.5018 37.611 18.5912 37.5887L18.6583 37.7004L17.5856 38.5496ZM20.4461 34.7729L17.7197 37.4546C17.7197 37.4546 17.6973 37.1194 17.8984 36.8736L20.7589 33.9907L20.4461 34.7729Z" fill="#515D60"/>
<path d="M20.1108 53.0309C19.999 53.0309 19.8426 53.0085 19.6638 52.9862C19.8203 53.0085 19.9767 53.0309 20.1108 53.0309Z" fill="#59B1CD"/>
<path d="M1.44949 37.7006C5.22624 51.2432 15.7743 52.7852 19.417 53.0087C18.7912 52.964 18.0314 52.8746 17.2493 52.7182C13.4278 51.936 8.04204 49.299 5.09215 43.3098C5.04746 43.2204 5.00276 43.1087 4.95807 43.0193C4.93572 42.9746 4.91337 42.9076 4.89103 42.8629C4.82398 42.7064 4.75694 42.55 4.66755 42.3936C4.62285 42.2595 4.55581 42.1477 4.51112 42.0136C4.46642 41.9019 4.42173 41.7902 4.37703 41.6784C4.26529 41.3656 4.15355 41.075 4.04182 40.7622C3.93008 40.4493 3.84069 40.1141 3.7513 39.7789C-1.29926 22.5042 14.21 4.89426 34.6134 4.60374L35.5967 0.0224749C11.4165 -0.782039 -3.17646 21.0963 1.44949 37.7006Z" fill="#59B1CD"/>
<path d="M30.6589 6.19028C21.8986 7.30766 13.9205 11.7772 8.71352 18.6379C3.6853 25.2528 2.07628 32.3593 4.10991 39.667C6.63519 48.7625 13.5853 51.8018 17.7867 52.6957C18.5241 52.8521 19.1499 52.9415 19.6862 52.9862C19.865 53.0085 20.0214 53.0085 20.1332 53.0309C20.2002 53.0309 20.2896 53.0309 20.3566 53.0309C19.6192 52.9191 18.7699 52.7627 17.8537 52.4722C15.8201 51.8465 13.4736 50.662 11.4399 48.4049C10.8812 47.8239 10.3672 47.1758 9.92029 46.4383C8.57943 44.4047 7.46205 41.7453 6.81397 38.2591C4.73564 27.2641 12.0657 17.3641 22.2338 12.7828C25.7201 11.2185 29.5415 10.2799 33.4523 10.1458L34.3686 5.87741C33.0948 5.94445 31.8657 6.03384 30.6589 6.19028Z" fill="white"/>
<path d="M12.1326 21.5207C7.8866 26.6383 6.0541 32.4711 7.19383 38.5049C8.24416 44.0918 10.5013 48.1368 14.0769 50.5726C15.2613 51.3772 16.6245 52.0252 17.8983 52.4275C18.2559 52.5392 18.5911 52.6286 18.9263 52.718C15.9094 51.8465 9.96493 48.8519 9.22746 38.9519C8.31121 26.4819 17.7419 17.4535 32.2455 15.6657L33.1394 11.4867C28.6028 11.6654 24.1557 12.8722 20.2001 14.9952C17.1385 16.6266 14.3674 18.839 12.1326 21.5207Z" fill="#477D61"/>
<path d="M3.75229 39.7564C3.84168 40.0916 3.95342 40.4045 4.04281 40.7397C4.15455 41.0526 4.26629 41.3654 4.37803 41.6559C4.42272 41.7677 4.46742 41.8794 4.51211 41.9912C4.55681 42.1252 4.62385 42.237 4.66855 42.3711C4.73559 42.5275 4.80263 42.6839 4.89202 42.8404C4.91437 42.8851 4.93672 42.9521 4.95906 42.9968C5.00376 43.0862 5.04845 43.1979 5.09315 43.2873C8.04304 49.2765 13.4288 51.9135 17.2503 52.6957C18.0324 52.8521 18.7922 52.9415 19.418 52.9862C20.1778 53.0532 20.6918 53.0532 20.6918 53.0532C20.6918 53.0532 19.9096 52.9415 18.9263 52.6957C18.5911 52.6063 18.2559 52.5169 17.8983 52.4052C16.6245 52.0029 15.2837 51.3772 14.0769 50.5503C10.4789 48.1144 8.24416 44.0471 7.19383 38.4826C6.0541 32.4711 7.8866 26.6383 12.1326 21.4984C14.3674 18.8167 17.1162 16.6043 20.2001 14.9505C24.1333 12.8499 28.6028 11.6208 33.1394 11.442L33.3629 10.3693L33.4076 10.1682C29.5191 10.3022 25.6977 11.2408 22.1891 12.8052C12.0209 17.3641 4.69089 27.2864 6.76922 38.2815C7.4173 41.7453 8.53468 44.4047 9.87554 46.4607C10.3448 47.1982 10.8588 47.8462 11.3952 48.4273C13.4512 50.662 15.7753 51.8688 17.8089 52.4945C18.7252 52.7851 19.5744 52.9415 20.3119 53.0532C20.2448 53.0532 20.1778 53.0532 20.0884 53.0532C19.9543 53.0532 19.7979 53.0309 19.6414 53.0085C19.1051 52.9638 18.4794 52.8745 17.7419 52.718C13.5405 51.8018 6.59044 48.7625 4.06516 39.6894C2.03153 32.3817 3.64055 25.2751 8.66877 18.6602C13.8758 11.7995 21.8539 7.33001 30.6141 6.21263C31.8209 6.05619 33.05 5.9668 34.2791 5.94446L34.4803 5.0282L34.5473 4.73768L34.5697 4.62595C14.211 4.89412 -1.29827 22.504 3.75229 39.7564Z" fill="#D65B45"/>
<path d="M31.1058 53.4332C30.7483 53.0756 30.3907 52.1593 30.279 51.8018L30.7036 51.5783L30.6589 46.93L30.3684 42.5275L30.2119 39.5106L29.8767 34.1025V31.6442L29.6756 29.4542L28.9605 22.7275L28.8264 20.4481L27.9325 19.1072H27.8878L27.5749 19.2189C27.4632 19.6882 27.3514 20.0011 27.3514 20.0011V20.4257C27.3067 20.7609 27.1726 21.5878 27.1726 21.5878C27.1726 21.5878 27.5526 23.4426 27.709 24.1801C27.7313 24.2695 27.7313 24.3812 27.709 24.493C27.6196 24.9176 27.3514 25.9456 27.3514 25.9456L27.2173 26.4149C27.2844 26.5713 27.3738 26.7501 27.4632 26.9065C27.5302 27.0183 27.5972 27.2194 27.5972 27.2194C27.709 27.6887 27.262 27.6887 27.262 27.6887C27.262 27.6887 27.0609 27.711 26.9492 27.5993L26.9268 27.577C26.8598 27.4876 26.7927 27.3982 26.7257 27.3311C26.7257 28.8731 26.6586 37.4099 26.614 43.8237L27.1726 50.9079C27.4408 50.3715 27.9772 49.9916 28.6252 49.9916C29.5191 49.9916 30.2343 50.7067 30.2343 51.6006C30.2343 52.2934 29.8097 52.8745 29.1839 53.1203L28.8264 53.5449V54.774H28.4241V53.5449L28.0442 53.0979C27.8207 53.0085 27.6419 52.8968 27.4855 52.718C27.4632 52.8745 27.3738 53.4108 27.2844 53.6119C26.9045 54.4164 27.5079 54.8857 27.5079 54.8857L31.3963 54.841C31.3516 54.8634 31.7092 54.0365 31.1058 53.4332ZM30.0778 42.5275L29.318 45.4104C29.1839 45.1422 29.1616 44.8517 29.2063 44.5611L30.0778 41.0079V42.5275Z" fill="#515D60"/>
<path d="M27.2393 27.5544L27.195 27.5323C27.195 27.5544 27.2172 27.5544 27.2393 27.5544Z" fill="#515D60"/>
<path d="M27.3061 52.5606C27.284 52.5163 27.2618 52.4942 27.2397 52.4499C27.2397 52.4942 27.284 52.5385 27.3061 52.5606Z" fill="white"/>
<path d="M27.3961 52.2934C27.6419 52.718 28.0889 52.9862 28.6029 52.9862C29.3627 52.9862 29.9884 52.3605 29.9884 51.6006C29.9884 50.8408 29.3627 50.2151 28.6029 50.2151C27.8431 50.2151 27.2173 50.8408 27.2173 51.6006H26.9715V51.623C26.9715 51.9135 27.0609 52.1817 27.195 52.4052L27.3961 52.2934ZM28.8263 52.651C28.8263 52.718 28.7817 52.7627 28.7146 52.7627C28.6476 52.7627 28.6029 52.718 28.6029 52.651C28.6029 52.5839 28.6476 52.5392 28.7146 52.5392C28.7593 52.5392 28.8263 52.5839 28.8263 52.651ZM28.5358 52.1593C28.6029 52.1593 28.6476 52.204 28.6476 52.2711C28.6476 52.3381 28.6029 52.3828 28.5358 52.3828C28.4688 52.3828 28.4241 52.3381 28.4241 52.2711C28.4241 52.204 28.4688 52.1593 28.5358 52.1593ZM28.357 52.6063C28.357 52.6733 28.3124 52.718 28.2453 52.718C28.1783 52.718 28.1336 52.6733 28.1336 52.6063C28.1336 52.5392 28.1783 52.4945 28.2453 52.4945C28.3124 52.4945 28.357 52.5392 28.357 52.6063ZM28.2677 52.1146C28.2677 52.1817 28.223 52.2264 28.1559 52.2264C28.0889 52.2264 28.0442 52.1817 28.0442 52.1146C28.0442 52.0476 28.0889 52.0029 28.1559 52.0029C28.223 52.0029 28.2677 52.0699 28.2677 52.1146ZM27.9771 51.6453C28.0442 51.6453 28.0889 51.69 28.0889 51.7571C28.0889 51.8241 28.0442 51.8688 27.9771 51.8688C27.9101 51.8688 27.8654 51.8241 27.8654 51.7571C27.8654 51.69 27.9101 51.6453 27.9771 51.6453ZM27.8877 52.2487C27.9548 52.2487 27.9995 52.2934 27.9995 52.3605C27.9995 52.4275 27.9548 52.4722 27.8877 52.4722C27.8207 52.4722 27.776 52.4275 27.776 52.3605C27.776 52.2934 27.8207 52.2487 27.8877 52.2487ZM27.776 52.0029C27.776 52.0699 27.7313 52.1146 27.6643 52.1146C27.5972 52.1146 27.5525 52.0699 27.5525 52.0029C27.5525 51.9359 27.5972 51.8912 27.6643 51.8912C27.709 51.8912 27.776 51.9359 27.776 52.0029ZM27.5972 51.5113C27.6643 51.5113 27.709 51.5559 27.709 51.623C27.709 51.69 27.6643 51.7347 27.5972 51.7347C27.5302 51.7347 27.4855 51.69 27.4855 51.623C27.4855 51.5559 27.5525 51.5113 27.5972 51.5113Z" fill="white"/>
<path d="M18.1442 20.2246L18.6805 21.0514L21.5187 20.0681C20.96 19.353 20.4907 18.772 20.4907 18.772L19.5074 18.1016L18.837 17.2077L17.5185 15.3081C15.9318 16.0232 15.4401 17.2077 15.3507 17.4311L15.1273 17.6323L15.3507 17.4311C15.5072 17.7887 18.1442 20.2246 18.1442 20.2246ZM18.1218 19.3083L19.7085 19.1072L19.7532 19.353L18.0995 19.5318V19.3083H18.1218Z" fill="white"/>
<path d="M24.7591 14.9505V15.4869C24.8262 15.8445 25.1614 17.8557 25.4519 19.5989L26.614 19.4201L27.0386 19.2189L27.1056 18.1239C27.1056 18.1239 27.0162 17.1853 26.9269 16.7384C26.8375 16.202 26.7928 15.688 26.8375 15.1517C26.8375 15.1293 26.8375 15.107 26.8375 15.0623C26.9492 13.6991 26.7257 12.4253 26.5916 11.0621C26.5469 10.6375 26.4129 10.2129 26.3905 9.7212L26.5469 9.60947C25.9659 9.78825 24.7368 10.7268 23.2395 10.7268L23.53 11.9336V11.956C23.5524 12.0007 23.7088 12.2912 24.1781 13.8108L24.7591 14.9505ZM26.2564 14.5259L26.4129 14.6377L25.4519 15.8221L25.2955 15.7104L26.2564 14.5259Z" fill="white"/>
<path d="M27.1279 15.4198C27.2397 15.7327 27.4185 16.269 27.5078 16.4255C27.6419 16.6489 27.7537 16.8724 27.7537 16.8724L28.0889 17.6099C28.1559 17.744 28.1783 17.9004 28.1336 18.0568L27.9771 18.7943L27.9325 19.0178L27.9101 19.1072L28.1559 18.9508C28.1559 18.9508 28.3571 18.4591 28.3571 17.9004C28.3571 17.297 27.9101 16.7383 27.709 16.3584C27.5525 16.0679 27.2173 15.2187 27.1056 14.9505C27.1056 15.0176 27.1056 15.0846 27.1056 15.1517C27.1056 15.2187 27.1056 15.3081 27.1279 15.4198Z" fill="white"/>
<path d="M27.3514 24.8505C27.4631 24.4706 27.4185 24.1131 27.3067 23.7332C27.1503 23.1074 26.8821 21.6548 26.8821 21.6548L27.0385 19.353L25.4742 19.7776C25.6977 21.1632 25.8988 22.37 25.8988 22.37C25.8988 22.37 25.6083 23.018 25.4742 23.2862C25.4295 23.3979 25.2507 23.5097 25.0943 23.465C25.2507 23.6438 25.5189 23.9343 25.7647 24.0907C26.5469 24.56 26.4799 24.4259 26.7704 25.3645C26.8821 25.7444 27.0162 26.102 27.1726 26.4596L27.3067 25.9903C27.3291 25.9679 27.0832 25.7444 27.3514 24.8505Z" fill="white"/>
<path d="M27.575 19.2189L27.8878 19.1072L27.5973 19.1966C27.5973 19.1966 27.5973 19.2189 27.575 19.2189Z" fill="white"/>
<path d="M18.5688 21.3867L18.5464 21.3643L18.2336 21.409V21.1632C18.0548 21.1632 17.8536 21.1185 17.6972 20.9621C17.3843 20.6492 17.3843 20.1575 17.4067 19.9564C17.3397 19.8894 17.2726 19.8223 17.2056 19.7553C17.1832 20.1128 17.1832 20.828 17.5631 21.1408C17.7643 21.3196 18.0324 21.3867 18.2336 21.3867C18.3676 21.4313 18.4794 21.409 18.5688 21.3867Z" fill="white"/>
<path d="M25.4966 25.4763C25.4966 25.4763 26.3905 26.4819 26.7257 26.9065C26.7481 26.9289 26.7704 26.9512 26.7928 26.9959C26.8151 27.0406 26.8375 27.0629 26.8598 27.1076C26.8822 27.1523 26.9045 27.197 26.9492 27.2417C26.9716 27.2864 27.0163 27.3311 27.0386 27.3758C27.0386 27.3758 27.0386 27.3982 27.061 27.3982C27.0833 27.4429 27.128 27.5099 27.195 27.5322L27.2397 27.5546C27.2844 27.5546 27.3068 27.5546 27.3515 27.5099C27.3962 27.3535 27.3962 27.197 27.3291 27.0629L27.3068 26.9959C27.2844 26.9736 27.2844 26.9512 27.2621 26.9065C26.9716 26.2808 26.681 25.9009 26.4576 25.2304C26.3458 24.8729 26.1224 24.6271 25.8095 24.4259C25.5637 24.2695 25.3178 24.046 25.0944 23.8449C24.6251 23.3979 23.6865 22.5264 22.8819 21.6325C22.5467 21.2526 22.1445 20.7833 21.7646 20.314L18.9935 21.2749L18.8594 21.2973L18.9041 21.3643C18.9041 21.3643 23.463 23.9566 23.6194 24.1131C23.8652 24.3365 24.558 25.7221 24.7815 25.9903C24.8485 26.4596 25.1614 26.8171 25.519 27.1523C25.6977 27.3088 25.8989 27.2864 25.9659 27.2641V26.5489C25.6977 26.2361 25.4296 25.9009 25.2061 25.4539L25.4966 25.4763Z" fill="white"/>
<path d="M28.1559 18.0569C28.2006 17.9004 28.1783 17.744 28.1112 17.6099L27.776 16.8725C27.776 16.8725 27.6643 16.6713 27.5302 16.4255C27.4408 16.2691 27.2397 15.7327 27.1503 15.4199C27.262 16.0232 27.709 16.9842 27.776 17.4311C27.843 17.8781 27.776 18.4591 27.6643 18.9508L27.9995 18.7944L28.1559 18.0569Z" fill="#59B1CD"/>
<path d="M15.3955 8.76025C16.3788 8.58147 16.781 7.44174 16.781 7.44174H17.1386C17.1386 7.44174 16.6917 8.13451 16.5576 8.3133C16.5799 8.3133 16.6246 8.3133 16.647 8.3133L17.7196 8.46973L18.3677 9.16251C18.3677 9.16251 18.4124 8.93903 18.256 8.69321C18.1442 8.51442 17.9208 8.3133 17.8537 8.24625V7.19592C17.9208 6.77131 17.9878 6.36905 17.9878 6.36905L18.1219 5.31872C17.9431 5.69862 17.6079 6.05619 17.2503 5.9668C17.6303 5.76567 18.1442 4.78237 17.9208 4.44716L17.8314 4.38012C17.7196 4.33542 17.5632 4.33542 17.3174 4.42481C17.0716 3.93316 17.5632 3.24039 17.5632 3.24039L16.9598 3.30743L17.0269 3.73203L16.0883 4.11194L15.9318 4.15664V4.17899L15.8201 4.69298L15.5966 5.09524L15.5743 5.11759C15.3955 5.4528 15.1497 6.10088 14.9262 6.41375C14.7474 6.70427 14.4569 6.83835 14.1217 6.83835C14.0546 6.83835 13.9876 6.83835 13.9206 6.83835C13.4736 6.79366 13.116 6.88305 12.7808 7.08418C13.049 7.3747 13.563 7.91104 13.8759 8.11217C14.0323 8.22391 14.3228 8.40269 14.3228 8.40269C14.6133 8.55912 15.105 8.82729 15.3955 8.76025ZM16.7363 4.67063C17.3174 4.96115 17.1386 6.14558 16.7363 6.14558C16.8257 5.43045 16.9598 5.07289 16.6023 4.87176C16.2894 4.69298 16.0883 5.16228 15.9989 5.43045C15.619 5.34106 16.0659 4.33542 16.7363 4.67063Z" fill="white"/>
<path d="M13.8311 6.61488C14.2334 6.63723 14.5016 6.4808 14.725 6.14558C14.9038 5.87741 15.753 4.42482 15.9095 4.15665L15.1943 4.35778C14.8368 4.67064 14.4792 4.96116 14.077 5.29638C13.6524 5.67628 13.2948 5.98915 12.4456 5.89976L12.1998 7.08418C12.602 6.57019 13.2948 6.59254 13.8311 6.61488Z" fill="#59B1CD"/>
<path d="M13.6076 5.34107C14.0099 5.05056 14.5686 4.58126 14.9708 4.29074L16.6022 3.46387L16.9821 3.30744H16.9597C16.9597 3.30744 16.4681 2.48058 16.1552 2.19006L16.4234 2.21241V2.19006C15.9318 1.85485 15.0602 1.72076 15.0602 1.72076H15.0379C14.6133 1.67607 14.2333 1.69841 13.8981 1.7878C13.8534 1.65372 13.764 1.60902 13.5853 1.67607C13.4288 1.72076 13.4959 1.87719 13.5182 1.89954C12.0209 2.48058 11.7304 4.24604 12.2221 5.31873L12.2891 5.5422C12.7807 5.85507 13.2054 5.63159 13.6076 5.34107ZM15.239 3.84378L14.9708 3.93317C15.1719 2.65936 14.0769 2.19006 14.0769 2.19006C14.0769 2.19006 15.4401 2.50293 15.239 3.84378Z" fill="#59B1CD"/>
<path d="M15.5743 5.11741L15.5964 5.09525L15.5743 5.11741Z" fill="#59B1CD"/>
<path d="M15.9095 4.17881L15.9316 4.15665H15.9095V4.17881Z" fill="#59B1CD"/>
<path d="M12.7584 9.18487L12.7361 9.22956L11.8198 12.0677C11.8198 12.0677 12.021 13.2745 12.4679 14.079C13.0266 15.0623 13.4959 15.7998 13.8982 16.4031C14.3004 16.9842 14.3898 17.6993 14.7474 17.3864C14.8591 17.2747 15.4625 16.0679 17.295 15.0176L16.2447 13.8108L16.4681 13.6767L17.8984 15.1293C17.7643 15.174 17.6302 15.2411 17.4961 15.3081C17.4961 15.3081 18.7476 16.4255 18.9264 16.6043C19.4851 17.2077 20.0884 17.7664 20.6471 18.3921C20.8036 18.5709 20.96 18.7496 21.0941 18.9731C21.2505 19.2413 21.6081 19.7329 21.7869 19.9788L22.4126 19.7553C23.5523 18.705 24.4239 18.5709 24.7591 18.5932C24.7591 18.5932 24.0216 18.8167 22.6584 19.7553L23.6194 19.8894L25.1837 19.6659L23.8652 13.5427L23.5076 11.9783V11.956L23.2171 10.7492C23.083 10.7492 22.9713 10.7492 22.8372 10.7269C22.8372 10.7269 22.9936 9.8106 22.5243 8.96139L22.6808 8.82731C22.6808 8.82731 23.2171 9.58712 23.1724 10.414C23.9993 10.4363 24.8932 9.8553 26.3905 9.25191C26.4799 9.20722 26.5693 9.16252 26.6363 9.14017C26.7257 9.09548 26.7704 9.02843 26.7927 8.98374C26.8821 8.872 26.9492 8.73792 26.9268 8.58148C26.8821 8.26862 26.2117 7.5088 25.6753 6.48081C25.1614 5.47516 24.3792 4.2237 23.3512 3.88848C22.8372 3.73205 21.9209 3.59796 20.4907 3.68735C19.7756 3.73205 19.2392 3.84379 18.904 3.93318L18.1665 4.33543C18.2336 4.44717 18.2783 4.60361 18.2559 4.84943C18.2336 4.98352 18.1889 5.13995 18.1219 5.29638L17.9878 6.34672C17.9878 6.34672 17.9207 6.77132 17.8537 7.17358V8.26862C17.9207 8.31331 18.1442 8.51444 18.2559 8.71557C18.4124 8.96139 18.3677 9.18487 18.3677 9.18487L17.7419 8.49209L16.6693 8.33566C16.6469 8.33566 16.6022 8.33566 16.5799 8.33566C16.6916 8.15688 17.1609 7.4641 17.1609 7.4641H16.8033C16.8033 7.4641 16.4011 8.62618 15.4178 8.78261C15.1273 8.82731 14.6133 8.58148 14.3451 8.42505C14.3451 8.42505 14.3228 8.42505 14.3228 8.4027C13.7417 8.06749 13.4959 8.35801 13.4735 8.35801C13.4512 8.35801 13.0266 8.51444 12.8925 8.78261C12.8925 8.78261 12.8925 8.78261 12.8925 8.80496L12.7584 9.18487ZM21.4293 15.174C20.96 14.9282 21.7198 13.9002 21.7869 13.8332L21.9209 13.9002L21.4293 15.174ZM20.5354 16.8724C20.0437 16.5149 20.4013 14.3248 21.6304 12.6711L22.0327 12.537C21.0047 13.6767 20.5354 16.8724 20.5354 16.8724ZM22.502 4.53656L22.7925 4.6483C22.7925 4.6483 22.3009 5.65394 22.3232 7.15123L22.1221 7.30767C21.9209 5.98916 22.502 4.53656 22.502 4.53656ZM18.3453 8.17922L18.2559 7.86636L18.904 7.57584L18.4571 5.31873C18.4571 5.31873 18.6582 5.34108 18.7699 5.72099C18.9711 6.32437 19.2392 7.75462 19.2392 7.75462L18.3453 8.17922ZM17.3173 9.29661L17.4067 8.78261L17.6526 8.82731L17.4961 9.54243C17.4961 9.54243 15.9318 9.43069 15.3061 9.36365C15.172 9.3413 15.0602 9.18487 15.0602 9.18487L17.3173 9.29661ZM13.2277 11.9336C13.8982 11.8219 14.9932 11.7325 15.6189 12.6264L15.4848 12.7381C14.6803 11.9336 13.8088 12.0677 13.0489 12.1348C13.0266 12.1348 13.0936 11.956 13.2277 11.9336Z" fill="#59B1CD"/>
<path d="M25.586 22.2582L25.3849 20.6715L25.2508 19.867V19.8223L23.7535 20.2246L22.502 20.0682L21.988 20.2469L22.949 21.4537C23.9546 22.437 24.3792 22.8393 25.0944 23.4426C25.2061 23.1298 25.4966 22.504 25.586 22.2582Z" fill="#515D60"/>
<path d="M23.3736 3.91081C24.4016 4.22368 25.1838 5.47514 25.6978 6.50313C26.2118 7.53113 26.8822 8.29094 26.9492 8.60381C26.9716 8.76024 26.9045 8.89433 26.8151 9.00607C26.7928 9.05076 26.7481 9.11781 26.6587 9.1625C26.5917 9.2072 26.5246 9.22954 26.4129 9.27424C24.8932 9.87762 24.0217 10.4587 23.1948 10.4363C23.2395 9.60945 22.7032 8.84963 22.7032 8.84963L22.5467 8.98372C23.016 9.83293 22.8596 10.7492 22.8596 10.7492C22.9937 10.7715 23.1054 10.7715 23.2395 10.7715C24.7368 10.7492 25.9883 9.83293 26.547 9.65415L26.6587 9.56476C26.7928 9.40832 27.0833 9.02842 27.0386 8.7379C26.9939 8.40268 26.9045 7.82164 26.5917 7.33C25.6531 5.8774 25.1167 4.62593 23.9993 3.95551C23.463 3.62029 22.3009 3.24038 19.8427 3.55325C19.4628 3.59794 18.5912 4.0449 18.5242 4.08959C18.5242 4.08959 18.6583 4.0449 18.9041 3.95551C19.2393 3.86612 19.7756 3.75438 20.4908 3.70968C21.9434 3.62029 22.8596 3.75438 23.3736 3.91081Z" fill="white"/>
<path d="M26.8375 15.1732C26.8375 15.1511 26.8375 15.1289 26.8375 15.0846C26.8596 15.1289 26.8596 15.1511 26.8375 15.1732Z" fill="white"/>
<path d="M13.9204 6.83837C13.9875 6.83837 14.0545 6.83837 14.1216 6.83837C14.4568 6.83837 14.7473 6.70428 14.9261 6.41376C15.1272 6.1009 15.373 5.45281 15.5742 5.1176C15.5742 5.1176 15.5742 5.1176 15.5742 5.09525V5.0729L15.7976 4.67065L15.887 4.15665V4.1343L16.0435 4.08961L16.9821 3.7097L16.915 3.2851L16.5351 3.44153L14.9037 4.26839C14.5015 4.58126 13.9428 5.02821 13.5405 5.31873C13.1383 5.60925 12.736 5.83272 12.1997 5.56455C12.1997 5.56455 11.8868 6.65958 11.8421 6.9948C11.7974 7.33001 12.1773 7.55349 12.4232 7.30767C12.5125 7.21828 12.6243 7.12889 12.736 7.06184C13.1159 6.88306 13.4735 6.79367 13.9204 6.83837ZM14.0992 5.29638C14.4791 4.96117 14.859 4.67065 15.2166 4.35778L15.9317 4.15665C15.7529 4.44717 14.9261 5.87742 14.7473 6.14559C14.5462 6.45846 14.278 6.63724 13.8534 6.61489C13.3171 6.59254 12.6243 6.57019 12.2444 7.08419L12.4902 5.89977C13.3171 5.98916 13.6746 5.67629 14.0992 5.29638Z" fill="white"/>
<path d="M20.5354 16.8724C20.5354 16.8724 21.0048 13.6767 22.0327 12.5146L21.6305 12.6487C20.4014 14.3248 20.0438 16.5149 20.5354 16.8724Z" fill="white"/>
<path d="M16.1329 2.2124C16.4458 2.50292 16.9374 3.32978 16.9374 3.32978H16.9598L17.5632 3.26274C17.5632 3.26274 17.0939 3.95552 17.3174 4.44716C17.5632 4.35777 17.7196 4.35777 17.8314 4.40247C17.876 4.42482 17.8984 4.44716 17.9207 4.46951C18.1442 4.80473 17.6302 5.78802 17.2503 5.98915C17.6079 6.10089 17.9431 5.74333 18.1219 5.34107C18.1889 5.18464 18.2336 5.0282 18.256 4.89412C18.2783 4.64829 18.256 4.49186 18.1666 4.38012C18.0548 4.22369 17.876 4.15665 17.5855 4.1343C17.8984 3.41917 18.1889 2.54762 17.0045 3.03926C16.8481 2.74875 16.6246 2.48057 16.3788 2.23475L16.1329 2.2124Z" fill="#59B1CD"/>
<path d="M26.681 27.3535C26.7481 27.4429 26.8151 27.5099 26.8822 27.5993L26.9045 27.6217L26.681 27.3535Z" fill="white"/>
<path d="M26.8592 27.1067C26.837 27.0624 26.8149 27.0181 26.7927 26.9959C26.8149 27.0402 26.837 27.0845 26.8592 27.1067Z" fill="white"/>
<path d="M26.7922 26.9951C26.77 26.9508 26.7479 26.9287 26.7257 26.9065C26.7479 26.9287 26.77 26.973 26.7922 26.9951Z" fill="white"/>
<path d="M27.0386 27.3758C27.0163 27.3311 26.9939 27.2864 26.9492 27.2417C26.9716 27.2864 27.0163 27.3311 27.0386 27.3758Z" fill="white"/>
<path d="M26.9492 27.2418C26.9268 27.1971 26.9045 27.1524 26.8598 27.1077C26.9045 27.1524 26.9268 27.1971 26.9492 27.2418Z" fill="white"/>
<path d="M14.9709 3.93318L15.239 3.84379C15.4178 2.50293 14.077 2.19006 14.077 2.19006C14.077 2.19006 15.172 2.65936 14.9709 3.93318Z" fill="white"/>
<path d="M15.4849 12.7381L15.6189 12.6264C14.9932 11.7102 13.8982 11.8219 13.2277 11.9336C13.0937 11.956 13.0043 12.1124 13.0266 12.1124C13.8088 12.0677 14.658 11.9336 15.4849 12.7381Z" fill="white"/>
<path d="M22.3456 7.15123C22.3232 5.65394 22.8149 4.6483 22.8149 4.6483L22.502 4.53656C22.502 4.53656 21.921 5.96681 22.1221 7.30766L22.3456 7.15123Z" fill="white"/>
<path d="M15.9988 5.43045C16.1106 5.18463 16.3117 4.71533 16.6022 4.87176C16.9598 5.07289 16.848 5.4081 16.7363 6.14557C17.1162 6.14557 17.3173 4.96115 16.7363 4.67063C16.0659 4.33542 15.6189 5.34106 15.9988 5.43045Z" fill="#59B1CD"/>
<path d="M21.4294 15.174L21.8987 13.8779L21.7646 13.8108C21.7199 13.9002 20.9377 14.9282 21.4294 15.174Z" fill="white"/>
<path d="M23.9323 27.7557L23.7535 27.711C22.9937 30.281 22.3009 31.8677 21.8763 32.6945C21.6305 33.1638 21.4741 33.3873 21.4517 33.432C22.3009 32.2252 23.1054 30.795 23.5524 29.2083C23.5524 29.186 23.5524 29.186 23.5747 29.1636C23.6641 28.739 23.9323 27.7557 23.9323 27.7557Z" fill="white"/>
<path d="M15.3507 17.4311C15.4401 17.1853 15.9094 16.0232 17.4961 15.2858C17.6302 15.2187 17.7643 15.174 17.8984 15.107L16.4681 13.6767L16.2446 13.8108L17.295 15.0176C15.4625 16.0903 14.8591 17.2747 14.7473 17.3864C14.3898 17.6993 14.3004 16.9842 13.8981 16.4032C13.4959 15.8221 13.0266 15.0623 12.4679 14.079C12.0209 13.2745 11.8198 12.0677 11.8198 12.0677L12.7361 9.25191L12.7584 9.18487L12.8701 8.80496C12.8255 8.89435 11.9762 10.2352 11.5293 11.7548C11.4846 11.9113 11.4399 12.0677 11.3952 12.2241C11.3952 12.2241 11.6857 13.1627 11.8198 13.5427C11.9315 13.8555 13.0042 15.8445 13.6747 16.7384C14.1887 17.4088 14.3451 17.8781 14.3451 17.8781L15.0826 17.6546L15.3507 17.4311Z" fill="white"/>
<path d="M27.5973 51.7347C27.6644 51.7347 27.7091 51.69 27.7091 51.623C27.7091 51.5559 27.6644 51.5112 27.5973 51.5112C27.5303 51.5112 27.4856 51.5559 27.4856 51.623C27.4856 51.69 27.5526 51.7347 27.5973 51.7347Z" fill="#59B1CD"/>
<path d="M27.9772 51.8688C28.0443 51.8688 28.089 51.8241 28.089 51.7571C28.089 51.69 28.0443 51.6453 27.9772 51.6453C27.9102 51.6453 27.8655 51.69 27.8655 51.7571C27.8655 51.8241 27.9102 51.8688 27.9772 51.8688Z" fill="#59B1CD"/>
<path d="M28.0442 52.1146C28.0442 52.1817 28.0889 52.2264 28.1559 52.2264C28.223 52.2264 28.2677 52.1817 28.2677 52.1146C28.2677 52.0476 28.223 52.0029 28.1559 52.0029C28.0889 52.0029 28.0442 52.0699 28.0442 52.1146Z" fill="#59B1CD"/>
<path d="M28.5358 52.4051C28.5975 52.4051 28.6475 52.3551 28.6475 52.2934C28.6475 52.2317 28.5975 52.1817 28.5358 52.1817C28.4741 52.1817 28.4241 52.2317 28.4241 52.2934C28.4241 52.3551 28.4741 52.4051 28.5358 52.4051Z" fill="#59B1CD"/>
<path d="M27.6419 52.1147C27.7036 52.1147 27.7536 52.0646 27.7536 52.0029C27.7536 51.9412 27.7036 51.8912 27.6419 51.8912C27.5802 51.8912 27.5302 51.9412 27.5302 52.0029C27.5302 52.0646 27.5802 52.1147 27.6419 52.1147Z" fill="#59B1CD"/>
<path d="M27.8878 52.4945C27.9495 52.4945 27.9995 52.4445 27.9995 52.3828C27.9995 52.3211 27.9495 52.2711 27.8878 52.2711C27.8261 52.2711 27.7761 52.3211 27.7761 52.3828C27.7761 52.4445 27.8261 52.4945 27.8878 52.4945Z" fill="#59B1CD"/>
<path d="M28.2453 52.718C28.3071 52.718 28.3571 52.668 28.3571 52.6063C28.3571 52.5446 28.3071 52.4945 28.2453 52.4945C28.1836 52.4945 28.1336 52.5446 28.1336 52.6063C28.1336 52.668 28.1836 52.718 28.2453 52.718Z" fill="#59B1CD"/>
<path d="M28.5806 52.651C28.5806 52.718 28.6253 52.7627 28.6923 52.7627C28.7593 52.7627 28.804 52.718 28.804 52.651C28.804 52.5839 28.7593 52.5392 28.6923 52.5392C28.6253 52.5392 28.5806 52.5839 28.5806 52.651Z" fill="#59B1CD"/>
<path d="M18.7923 5.74332C18.6582 5.34106 18.4794 5.34106 18.4794 5.34106L18.9263 7.59817L18.2559 7.86635L18.3677 8.15686L19.2616 7.75461C19.2616 7.77696 18.9934 6.34671 18.7923 5.74332Z" fill="white"/>
<path d="M15.0827 9.18485C15.0827 9.18485 15.1944 9.36363 15.3285 9.36363C15.9543 9.43067 17.5186 9.54241 17.5186 9.54241L17.675 8.82729L17.4292 8.78259L17.3398 9.29659L15.0827 9.18485Z" fill="white"/>
<path d="M21.7646 20.3363C21.6752 20.2469 21.6081 20.1352 21.5187 20.0458L18.6806 21.0291L18.8594 21.3196L18.9935 21.2973L21.7646 20.3363Z" fill="white"/>
<path d="M27.9772 18.7943L27.642 18.9508C27.6196 19.0402 27.5973 19.1072 27.5973 19.1966L27.8878 19.1072H27.9325V19.0849L27.9549 18.9955L27.9772 18.7943Z" fill="white"/>
<path d="M18.4124 21.1632C18.3677 21.1632 18.3006 21.1632 18.2336 21.1632V21.409L18.5464 21.3643L18.4124 21.1632Z" fill="white"/>
<path d="M25.4518 19.6212C25.4518 19.6659 25.4742 19.7106 25.4742 19.7776L27.0385 19.353V19.2413L26.6139 19.4424L25.4518 19.6212Z" fill="white"/>
<path d="M21.8987 20.1352L21.9881 20.2469L22.5021 20.0682L23.7312 20.2469L25.2285 19.8447L25.1838 19.6659L23.5971 19.9117L22.6361 19.7776C23.9993 18.839 24.7368 18.6156 24.7368 18.6156C24.3793 18.5709 23.5077 18.7273 22.3903 19.7776L21.7646 20.0011C21.854 20.0681 21.8987 20.1352 21.8987 20.1352Z" fill="white"/>
<path d="M18.4125 21.1632L17.9878 20.5375L17.6973 20.2469C17.6526 20.2246 17.5632 20.1128 17.4068 19.9788C17.3845 20.1575 17.3845 20.6715 17.6973 20.9844C17.8538 21.1408 18.0549 21.1632 18.2337 21.1855C18.3007 21.1632 18.3678 21.1632 18.4125 21.1632Z" fill="#59B1CD"/>
<path d="M26.4129 14.66L26.2564 14.5259L25.2955 15.7104L25.4519 15.8221L26.4129 14.66Z" fill="#59B1CD"/>
<path d="M19.7086 19.1072L18.1219 19.3083V19.5318L19.7533 19.353L19.7086 19.1072Z" fill="#59B1CD"/>
<path d="M29.318 45.4104L30.0778 42.5275V41.0079L29.2063 44.5611C29.1616 44.8517 29.2063 45.1422 29.318 45.4104Z" fill="white"/>
<path d="M26.681 27.3535L26.6139 27.2864C26.3905 27.0406 26.167 26.7948 25.9659 26.549V27.2641C25.9882 27.2641 26.0106 27.2417 26.0106 27.2417L25.9882 27.4652C25.9882 27.4652 25.9659 27.4652 25.9659 27.4875L25.9212 39.9128V40.1363L25.7424 51.3548C25.7424 51.3548 22.7925 51.2654 22.3009 52.5616C22.055 53.232 22.0997 54.6399 23.3065 54.9304L24.6697 54.9751C26.234 54.5058 26.5246 53.165 26.5246 51.0419C26.5246 50.5726 26.5469 47.5781 26.5692 43.846C26.6139 37.4546 26.681 28.9178 26.681 27.3535Z" fill="#59B1CD"/>
<path d="M17.742 37.4323L20.4684 34.7506L20.7813 33.9684L17.9208 36.8736C17.6973 37.097 17.742 37.4323 17.742 37.4323Z" fill="white"/>
<path d="M17.5855 38.5496L18.6806 37.7228L18.6135 37.611C18.5241 37.611 17.3174 38.0803 17.5855 38.5496Z" fill="white"/>
<path d="M14.7474 37.7004C15.0602 37.1417 15.3731 36.5607 15.3508 35.7338L14.9038 36.8289L14.7474 37.7004Z" fill="white"/>
<path d="M28.0218 53.1203L28.4017 53.5672V54.7963H28.804V53.5672L29.1616 53.1426C29.7649 52.9191 30.2119 52.3158 30.2119 51.623C30.2119 50.7291 29.4968 50.0139 28.6029 50.0139C27.9548 50.0139 27.3961 50.3939 27.1503 50.9302C27.0385 51.1313 26.9938 51.3772 26.9938 51.623H27.2397C27.2397 50.8632 27.8654 50.2374 28.6252 50.2374C29.385 50.2374 30.0108 50.8632 30.0108 51.623C30.0108 52.3828 29.385 53.0085 28.6252 53.0085C28.1336 53.0085 27.6643 52.7404 27.4184 52.3158L27.2173 52.4275C27.2173 52.4498 27.2397 52.4498 27.2397 52.4722C27.262 52.5169 27.2844 52.5392 27.3067 52.5839C27.3514 52.651 27.4184 52.718 27.4631 52.7627C27.6196 52.9191 27.8207 53.0532 28.0218 53.1203Z" fill="#59B1CD"/>
<path d="M25.2284 19.8447V19.8894L25.3625 20.6939L25.5637 22.2806C25.4743 22.5264 25.2061 23.1521 25.0944 23.465C25.2508 23.4873 25.4296 23.398 25.4743 23.2862C25.6084 22.9957 25.8989 22.37 25.8989 22.37C25.8989 22.37 25.6977 21.1855 25.4743 19.7776C25.4743 19.7329 25.4519 19.6883 25.4519 19.6212C25.1614 17.8781 24.8262 15.8445 24.7591 15.5092V14.9729L24.1781 13.8555C23.7088 12.3359 23.5524 12.0454 23.53 12.0007L23.8876 13.565L25.1838 19.6659L25.2284 19.8447Z" fill="#59B1CD"/>
<path d="M26.5469 9.63181L26.3905 9.74355C26.4352 10.2352 26.5693 10.6598 26.5916 11.0844C26.7257 12.4253 26.9492 13.7214 26.8375 15.0846C26.8375 15.107 26.8375 15.1293 26.8375 15.174C26.7928 15.7104 26.8375 16.2467 26.9268 16.7607C27.0162 17.23 27.1056 18.1463 27.1056 18.1463L27.0386 19.2413V19.353L26.8821 21.6548C26.8821 21.6548 27.1503 23.1074 27.3068 23.7332C27.3961 24.1131 27.4632 24.4706 27.3514 24.8505C27.0833 25.7668 27.3514 25.9903 27.3514 25.9903C27.3514 25.9903 27.6196 24.9623 27.709 24.5377C27.7314 24.4483 27.7314 24.3365 27.709 24.2248C27.5526 23.4873 27.1727 21.6325 27.1727 21.6325C27.1727 21.6325 27.3068 20.8056 27.3514 20.4704V20.0458C27.3514 20.0458 27.4632 19.7106 27.5749 19.2636V19.2413C27.5973 19.1742 27.6196 19.0849 27.6196 18.9955C27.7314 18.5038 27.7984 17.9451 27.7314 17.4758C27.6643 17.0289 27.2174 16.0679 27.1056 15.4645C27.0833 15.3528 27.0833 15.2634 27.0833 15.174C27.0833 15.107 27.0833 15.0399 27.0833 14.9729C27.1056 14.2578 27.0162 13.5873 27.0162 12.8722C27.0162 12.2688 26.6587 9.78825 26.614 9.60947L26.5469 9.63181Z" fill="#59B1CD"/>
<path d="M17.6972 20.2469L17.9878 20.5375L18.4124 21.1632L18.5464 21.3643L18.5688 21.3867L18.7252 21.6102L23.4406 24.2695C23.7087 24.4706 24.3345 25.7892 24.558 26.102C24.558 26.2138 24.5803 26.3032 24.625 26.3925C24.7591 26.8171 25.0943 27.1077 25.4295 27.3758C25.4519 27.3982 25.4742 27.3982 25.4966 27.4205C25.4966 27.4205 25.6977 27.5323 25.7871 27.5099C25.8541 27.4876 25.9212 27.4652 25.9659 27.4429C25.9882 27.4429 25.9882 27.4205 25.9882 27.4205L26.0105 27.1971C26.0105 27.1971 25.9882 27.1971 25.9659 27.2194C25.8765 27.2418 25.6977 27.2641 25.5189 27.1077C25.1613 26.7725 24.8708 26.4149 24.7814 25.9456C24.558 25.6774 23.8652 24.3142 23.6194 24.0684C23.4629 23.912 18.904 21.3196 18.904 21.3196L18.8593 21.2526L18.6805 20.9621L18.1442 20.1352C18.1442 20.1352 15.5072 17.6993 15.3507 17.3641L15.1273 17.5652C15.1273 17.5652 15.1273 17.5876 15.1496 17.5876C15.3507 17.8111 16.5128 18.9955 17.2056 19.6883C17.2726 19.7553 17.3397 19.8223 17.4067 19.8894C17.5631 20.1129 17.6749 20.2246 17.6972 20.2469Z" fill="#59B1CD"/>
<path d="M25.7871 24.0684C25.5413 23.9119 25.2731 23.6214 25.1167 23.4426C24.4239 22.8169 23.977 22.437 22.9713 21.4537L22.0104 20.2469L21.921 20.1352C21.921 20.1352 21.8763 20.0682 21.7869 19.9564C21.6081 19.7106 21.2506 19.2189 21.0941 18.9508C20.96 18.7273 20.8259 18.5709 20.6472 18.3697C20.1108 17.744 19.4851 17.2077 18.9264 16.5819C18.77 16.4031 17.4962 15.2858 17.4962 15.2858L18.8147 17.1853L19.4851 18.0792L20.4907 18.772C20.4907 18.772 20.96 19.353 21.5187 20.0682C21.5858 20.1575 21.6752 20.2693 21.7645 20.3587C22.1445 20.828 22.5467 21.2973 22.8819 21.6772C23.6864 22.5711 24.625 23.4426 25.0943 23.8896C25.3178 24.0907 25.5413 24.3142 25.8095 24.4706C26.1223 24.6718 26.3458 24.9176 26.4575 25.2752C26.6587 25.9456 26.9715 26.3255 27.2621 26.9512C27.2844 26.9736 27.2844 26.9959 27.3068 27.0406L27.3291 27.1077C27.3961 27.2417 27.3961 27.3982 27.3515 27.5546C27.3068 27.5993 27.2844 27.5993 27.2397 27.5993C27.2174 27.5993 27.2174 27.5993 27.195 27.577C27.128 27.5546 27.0833 27.4652 27.0609 27.4429C27.0609 27.4429 27.0609 27.4205 27.0386 27.4205C27.0162 27.3758 26.9939 27.3311 26.9492 27.2864C26.9269 27.2417 26.9045 27.197 26.8598 27.1524C26.8375 27.1077 26.8151 27.063 26.7928 27.0406C26.7704 26.9959 26.7481 26.9736 26.7257 26.9512C26.3905 26.5266 25.4966 25.521 25.4966 25.521L25.2284 25.4986C25.4519 25.9232 25.6977 26.2584 25.9882 26.5937C26.2117 26.8395 26.4352 27.0853 26.6363 27.3311L26.7034 27.3982L26.9269 27.6887C27.0386 27.8004 27.2397 27.7781 27.2397 27.7781C27.2397 27.7781 27.6867 27.7781 27.5749 27.3088C27.5749 27.3088 27.5302 27.1077 27.4408 26.9959C27.3515 26.8395 27.2621 26.6831 27.195 26.5043C27.0386 26.1467 26.9045 25.7891 26.7928 25.4092C26.5022 24.4036 26.5693 24.5377 25.7871 24.0684Z" fill="#59B1CD"/>
<path d="M36 54.4388C35.7765 55.0869 35.6648 55.4668 35.6648 55.4668L24.9826 56.2936L15.0603 57.344L15.2614 56.7853L16.5575 56.2489C16.5575 56.2489 12.6467 55.355 7.86433 55.2657L1.78578 55.1763L1.45056 54.2824L5.67426 54.3271L8.33363 54.26L23.1054 54.774H23.1948H23.2842L25.0049 54.841C25.0049 54.841 27.4408 54.707 28.67 54.6176L29.1616 54.5729L36 54.4388Z" fill="#477D61"/>
</svg>
