<svg width="107" height="46" viewBox="0 0 107 46" fill="none" xmlns="http://www.w3.org/2000/svg">
<path d="M36.6189 13.6675C36.4548 13.625 36.2854 13.6045 36.1157 13.6074C35.8232 13.6124 35.5272 13.6864 35.2515 13.8363C34.9757 13.9862 34.7525 14.1947 34.5891 14.4374C34.5348 14.5182 34.4871 14.6028 34.446 14.6904C34.4366 14.7563 34.4251 14.822 34.4112 14.8871C34.4341 14.8971 34.4569 14.9074 34.4795 14.918C34.6075 14.9428 34.738 14.9544 34.8686 14.9522C35.161 14.9472 35.457 14.8732 35.7328 14.7233C36.0086 14.5734 36.2319 14.3649 36.3952 14.1222C36.4902 13.9809 36.5653 13.8278 36.6189 13.6675ZM14.8446 35.0412L19.3995 31.9753L23.9544 35.0412C24.9423 34.5474 25.8389 33.8982 26.612 33.1254L19.3995 28.2709L12.1871 33.1254C12.9601 33.8982 13.8567 34.5474 14.8446 35.0412ZM22.7986 35.532L19.3995 33.2442L16.0005 35.532C17.0637 35.9076 18.2077 36.112 19.3995 36.112C20.5913 36.112 21.7354 35.9076 22.7986 35.532ZM29.6013 19.7504L26.6499 17.7637V21.6189L29.6013 23.6055V19.7504ZM26.6499 16.4949L29.6013 18.4816V14.7583H26.6499V16.4949ZM9.19769 18.4816L11.1344 17.178L12.1491 16.4949V14.7583H9.19769V18.4816ZM12.1491 17.7637L10.2125 19.0673L9.19769 19.7504V23.6055L10.9432 22.4307L12.1491 21.6189V17.7637ZM29.6013 24.8743L26.6499 22.8877V26.6977L29.2782 28.4668C29.4891 27.6497 29.6013 26.7931 29.6013 25.9102V24.8743ZM12.1491 22.8877L10.4037 24.0626L9.19769 24.8743V25.9102C9.19769 26.7931 9.30996 27.6497 9.5208 28.4668L12.1491 26.6977V22.8877ZM28.947 29.5127L26.6499 27.9665V33.0871C27.6476 32.0792 28.4367 30.8644 28.947 29.5127ZM12.1491 27.9665L11.3257 28.5207L11.0565 28.702L9.85203 29.5127C10.3623 30.8644 11.1514 32.0792 12.1491 33.0871V27.9665ZM19.3995 6.97998C21.3938 6.97998 23.2066 7.79553 24.5204 9.10938C25.7173 10.3063 26.5006 11.9173 26.6306 13.7023H30.6574V16.9301C30.7737 16.6913 30.9055 16.4654 31.0514 16.256C31.3558 15.8191 31.7214 15.4513 32.1372 15.1827C31.845 14.9681 31.5883 14.6966 31.3856 14.3723C31.1266 13.9579 30.9836 13.5028 30.9478 13.0453C30.9109 12.5743 30.9899 12.0997 31.1746 11.6648L31.3184 11.326L31.6861 11.3451C32.1564 11.3695 32.6177 11.5071 33.027 11.7478C33.4233 11.9808 33.7701 12.3089 34.0288 12.7229C34.1305 12.8856 34.2143 13.0545 34.2808 13.2274C34.4236 13.1097 34.5797 13.0038 34.7482 12.9122C35.1778 12.6787 35.6408 12.5634 36.0992 12.5555C36.5753 12.5472 37.0443 12.6539 37.4643 12.8632L37.7944 13.0277L37.7531 13.3933C37.7001 13.8616 37.5349 14.3139 37.2697 14.708C37.0139 15.0882 36.6656 15.4139 36.2361 15.6474C36.043 15.7523 35.8432 15.8334 35.6402 15.8915C35.7612 16.0647 35.8655 16.2538 35.9498 16.4575C36.136 16.908 36.2014 17.3794 36.1609 17.8352C36.1189 18.3085 35.9627 18.764 35.7093 19.161L35.511 19.4716L35.1524 19.392C34.6903 19.2894 34.2579 19.0779 33.896 18.7741C33.5457 18.4801 33.2586 18.0987 33.0711 17.6451C32.8849 17.1945 32.8195 16.7231 32.86 16.2673C32.8692 16.1641 32.8838 16.0616 32.9037 15.9605C32.5253 16.1522 32.191 16.466 31.9177 16.8583C31.5537 17.3806 31.2979 18.0344 31.1826 18.7301C31.0665 19.4316 31.0924 20.1711 31.2932 20.8577C31.517 21.6229 31.964 22.3263 32.6817 22.8378C33.0583 22.4778 33.559 22.1592 34.2152 21.8929C35.0733 21.5446 35.7274 21.6557 36.1381 21.9716C36.4917 22.2437 36.6574 22.6552 36.6294 23.079C36.6032 23.4737 36.407 23.8777 36.0364 24.1724C35.4915 24.6057 34.553 24.8076 33.2361 24.3122C33.1679 24.2865 33.1011 24.2598 33.0354 24.2321C32.5061 25.3446 32.8588 26.8142 33.233 28.282C33.2437 28.2602 33.2547 28.2385 33.266 28.2169C33.4919 27.7836 33.8113 27.43 34.1866 27.168C34.5761 26.896 35.0253 26.7229 35.4922 26.662L35.8588 26.6141L36.0285 26.9404C36.2449 27.3567 36.3597 27.8242 36.3596 28.301C36.3595 28.7587 36.2522 29.2231 36.026 29.6568C35.9435 29.815 35.8485 29.9626 35.7429 30.099C35.826 30.1058 35.9085 30.116 35.9902 30.1297C36.459 30.2084 36.9013 30.3996 37.2777 30.6833L37.5708 30.9043L37.4633 31.2568C37.3253 31.709 37.0802 32.1239 36.7483 32.4623C36.4274 32.7893 36.0257 33.0459 35.5615 33.1968C35.0965 33.348 34.6208 33.3768 34.1695 33.3011C33.9481 33.264 33.7325 33.2018 33.5271 33.1165C33.0602 34.4659 32.2056 35.0985 31.2769 35.2752C31.1461 35.3 31.0142 35.3154 30.8821 35.3218C30.7271 35.7155 30.4985 36.1084 30.1825 36.4842C30.25 36.49 30.3177 36.4984 30.3856 36.5097C30.8062 36.5795 31.1862 36.7484 31.5053 36.9886C31.836 37.2375 32.1011 37.5629 32.2784 37.9336L32.4375 38.2662L32.1794 38.5297C31.8918 38.8232 31.5359 39.0454 31.1428 39.174C30.7644 39.2977 30.3513 39.3346 29.9315 39.2649C29.5108 39.195 29.1309 39.026 28.8118 38.7859C28.5303 38.5741 28.2963 38.3068 28.1236 38.0033C28.0135 38.0551 27.9001 38.1056 27.7829 38.1545C27.424 38.3045 26.8844 38.4879 26.237 38.7079C24.414 39.3275 21.7014 40.2496 20.1047 41.4229C21.1287 42.5893 21.2759 43.9258 19.7075 45.4202L19.3489 45.7618L18.9855 45.4243C17.3793 43.9321 17.5133 42.5934 18.5379 41.4223C16.9411 40.2451 14.2402 39.3215 12.4284 38.7021C11.7921 38.4846 11.2612 38.303 10.9059 38.1545C10.7888 38.1056 10.6753 38.0551 10.5653 38.0033C10.3926 38.3068 10.1586 38.5741 9.87711 38.7859C9.55791 39.0261 9.17799 39.195 8.75737 39.2649C8.33742 39.3346 7.92434 39.2976 7.546 39.174C7.15299 39.0455 6.7971 38.8234 6.50948 38.5298L6.25148 38.2663L6.41047 37.9337C6.58762 37.563 6.85281 37.2375 7.18356 36.9886C7.5026 36.7486 7.88257 36.5795 8.30326 36.5097C8.37116 36.4984 8.43897 36.49 8.50639 36.4842C8.19042 36.1085 7.96172 35.7154 7.8068 35.3218C7.67463 35.3154 7.54273 35.3 7.41193 35.2752C6.48328 35.0986 5.62872 34.466 5.16183 33.1165C4.95643 33.2018 4.74088 33.264 4.51948 33.3011C4.06811 33.3768 3.59246 33.348 3.12742 33.1968C2.66311 33.0458 2.26144 32.7893 1.94061 32.4622C1.60863 32.1239 1.36358 31.709 1.2256 31.2567L1.11804 30.9042L1.41121 30.6833C1.78764 30.3996 2.22993 30.2083 2.69876 30.1297C2.78045 30.116 2.86293 30.1058 2.94603 30.099C2.84043 29.9626 2.74544 29.815 2.66292 29.6568C2.43671 29.2231 2.32941 28.7587 2.32931 28.301C2.32919 27.8242 2.44399 27.3567 2.66038 26.9405L2.83009 26.6142L3.19665 26.662C3.66348 26.7229 4.11263 26.8959 4.50226 27.168C4.87748 27.4299 5.19689 27.7835 5.42288 28.2168C5.43418 28.2384 5.44517 28.2602 5.45589 28.282C5.83011 26.8141 6.18268 25.3446 5.65349 24.2321C5.58774 24.2598 5.52095 24.2865 5.45277 24.3122C4.13586 24.8076 3.19733 24.6057 2.65245 24.1724C2.28183 23.8777 2.08572 23.4737 2.05953 23.079C2.03144 22.6552 2.19707 22.2438 2.55081 21.9717C2.96145 21.6557 3.61554 21.5447 4.47364 21.8929C5.12978 22.1592 5.63057 22.4778 6.00716 22.8378C6.72491 22.3263 7.17189 21.6229 7.39567 20.8577C7.59648 20.1711 7.62241 19.4316 7.50624 18.7301C7.39103 18.0344 7.13509 17.3805 6.77117 16.8583C6.49786 16.466 6.16366 16.1522 5.78528 15.9605C5.80518 16.0616 5.8197 16.1641 5.82889 16.2673C5.86934 16.7231 5.80386 17.1946 5.61767 17.6451C5.43023 18.0988 5.14319 18.4801 4.79289 18.774C4.43097 19.0778 3.99857 19.2894 3.53654 19.392L3.17801 19.4716L2.97968 19.161C2.72622 18.764 2.56997 18.3085 2.52794 17.8352C2.48749 17.3793 2.55292 16.908 2.73916 16.4575C2.82333 16.2538 2.92761 16.0647 3.04864 15.8915C2.84561 15.8333 2.64586 15.7523 2.45281 15.6474C2.02331 15.4139 1.67502 15.0882 1.41918 14.708C1.15401 14.3139 0.988725 13.8616 0.935815 13.3933L0.894531 13.0277L1.2246 12.8632C1.64449 12.654 2.11365 12.5472 2.58973 12.5555C3.04812 12.5634 3.51104 12.6787 3.9407 12.9122C4.10925 13.0038 4.26528 13.1098 4.40811 13.2275C4.4746 13.0546 4.55839 12.8856 4.66009 12.7229C4.91877 12.309 5.26564 11.9808 5.66188 11.7478C6.07121 11.5071 6.53244 11.3695 7.00276 11.3451L7.37049 11.326L7.51432 11.6648C7.69903 12.0997 7.77798 12.5743 7.74112 13.0453C7.70532 13.5027 7.56227 13.9579 7.30327 14.3722C7.10061 14.6966 6.84383 14.9682 6.55157 15.1827C6.96744 15.4512 7.33304 15.819 7.63746 16.256C7.83157 16.5345 8.00065 16.8424 8.14163 17.1707V13.7023H12.1684C12.2984 11.9173 13.0816 10.3062 14.2785 9.10938C15.5924 7.79553 17.4051 6.97998 19.3995 6.97998ZM23.7738 9.85601C22.6509 8.7331 21.1024 8.03605 19.3995 8.03605C17.6966 8.03605 16.1481 8.7331 15.0252 9.85601C13.9023 10.9789 13.2052 12.5274 13.2052 14.2303V31.1713L19.3995 27.002L25.5938 31.1713V14.2303C25.5938 12.5275 24.8967 10.9789 23.7738 9.85601ZM30.6574 22.0822V25.9102C30.6574 27.8477 30.1678 29.671 29.3057 31.263C29.586 31.3055 29.8547 31.4259 30.0992 31.6092C30.4382 31.8635 30.7209 32.2425 30.9052 32.6971C31.0821 33.1336 31.1724 33.6468 31.1372 34.1902L31.1343 34.229C31.7408 34.0932 32.3009 33.6002 32.604 32.5381L32.5887 32.5266L32.6856 32.2092C32.8943 31.2224 32.5694 29.9497 32.2422 28.6685C31.7869 26.8858 31.3283 25.0883 32.0472 23.6821C31.4357 23.2428 30.9784 22.6928 30.6574 22.0822ZM27.6524 33.5671C27.5568 33.6701 27.4593 33.7713 27.36 33.8707C25.3227 35.908 22.5082 37.1681 19.3995 37.1681C16.2909 37.1681 13.4763 35.908 11.439 33.8707C11.3148 33.7464 11.1935 33.6192 11.0751 33.4893C10.8369 33.9952 10.3613 34.4758 9.77558 34.8142C9.50628 34.9698 9.21089 35.0978 8.90231 35.1869C9.2761 35.9197 10.0246 36.644 11.3102 37.181C11.6373 37.3176 12.151 37.4933 12.7667 37.7038C14.6947 38.363 17.5859 39.3516 19.3214 40.6967C21.0573 39.3552 23.9593 38.3688 25.8988 37.7096C26.5261 37.4964 27.0491 37.3187 27.3787 37.181C28.6643 36.644 29.4128 35.9197 29.7866 35.1869C29.478 35.0978 29.1826 34.9698 28.9133 34.8142C28.3577 34.4933 27.9011 34.0442 27.6524 33.5671ZM9.48684 31.251C8.62879 29.6618 8.14163 27.8428 8.14163 25.9102V21.8587C7.81837 22.5586 7.32688 23.1899 6.64159 23.6821C7.36057 25.0883 6.90196 26.8858 6.4467 28.6685C6.11947 29.95 5.79446 31.2229 6.0034 32.2097L6.10009 32.5265L6.08483 32.538C6.38797 33.6003 6.94816 34.0933 7.55461 34.229L7.55176 34.1902C7.51643 33.6467 7.60683 33.1336 7.78367 32.6971C7.96796 32.2425 8.25066 31.8635 8.58966 31.6092C8.86413 31.4034 9.16917 31.277 9.48684 31.251ZM2.87207 31.1693C2.70447 31.1974 2.54194 31.2482 2.38886 31.3194C2.4707 31.4662 2.5723 31.6025 2.69137 31.7238C2.89635 31.9328 3.15419 32.0971 3.45332 32.1944C3.75187 32.2914 4.05702 32.31 4.34617 32.2615C4.51377 32.2334 4.67629 32.1826 4.82932 32.1114C4.74748 31.9646 4.64589 31.8283 4.52676 31.7069C4.32178 31.498 4.06394 31.3337 3.7648 31.2365C3.46631 31.1394 3.16117 31.1208 2.87207 31.1693ZM7.5854 38.0436C7.67585 38.0958 7.77184 38.1389 7.87191 38.1716C8.09558 38.2446 8.3399 38.2665 8.58818 38.2253C8.83567 38.1842 9.05887 38.0851 9.2459 37.9443C9.32986 37.8811 9.40664 37.8095 9.47523 37.731C9.38477 37.6787 9.28878 37.6357 9.18866 37.603C8.96498 37.5299 8.72072 37.508 8.47244 37.5493C8.22495 37.5903 8.00181 37.6895 7.81477 37.8302C7.73081 37.8934 7.65405 37.9649 7.5854 38.0436ZM3.89999 28.0301C3.76075 27.9329 3.60925 27.8555 3.45015 27.7991C3.40469 27.9626 3.38119 28.1314 3.38124 28.301C3.38129 28.5942 3.45016 28.8919 3.59521 29.1701C3.74047 29.4486 3.94535 29.6757 4.1857 29.8435C4.325 29.9407 4.47649 30.0182 4.63559 30.0746C4.68105 29.9111 4.70455 29.7422 4.7045 29.5726C4.7045 29.2795 4.63564 28.9817 4.49059 28.7035C4.34533 28.425 4.14045 28.1979 3.89999 28.0301ZM4.20941 14.9179C4.23207 14.9073 4.25483 14.8971 4.27775 14.8871C4.26391 14.822 4.25229 14.7564 4.24289 14.6906C4.20192 14.603 4.15407 14.5182 4.09974 14.4374C3.93642 14.1947 3.71317 13.9862 3.43737 13.8363C3.16169 13.6864 2.86567 13.6124 2.57325 13.6074C2.40349 13.6045 2.2341 13.625 2.06993 13.6675C2.12358 13.8278 2.19867 13.9809 2.29371 14.1222C2.45703 14.3649 2.68028 14.5734 2.95613 14.7233C3.23186 14.8732 3.52794 14.9472 3.82031 14.9522C3.95099 14.9544 4.08142 14.9428 4.20941 14.9179ZM3.57577 17.7445C3.59077 17.9135 3.62873 18.0793 3.68766 18.2373C3.84084 18.1667 3.98526 18.0755 4.11637 17.9655C4.34121 17.7768 4.52491 17.5333 4.64408 17.245C4.76447 16.9536 4.80699 16.6502 4.78106 16.3581C4.76681 16.1971 4.73163 16.0392 4.67741 15.8881C4.63897 15.8992 4.60027 15.9096 4.5614 15.9191C4.44809 15.9803 4.34041 16.0532 4.24045 16.1371C4.01562 16.3258 3.83192 16.5693 3.71274 16.8576C3.5923 17.149 3.54984 17.4524 3.57577 17.7445ZM6.68916 12.967C6.70252 12.7962 6.69275 12.6255 6.66102 12.4597C6.49786 12.5036 6.34061 12.5692 6.19403 12.6554C5.94311 12.8029 5.72202 13.013 5.55532 13.2798C5.38883 13.5461 5.29695 13.8371 5.2742 14.1283C5.26649 14.2274 5.26648 14.3265 5.27408 14.4246C5.29969 14.4901 5.32293 14.5567 5.34379 14.6239C5.49217 14.5804 5.63521 14.5187 5.76933 14.4398C6.02026 14.2922 6.24129 14.0822 6.40804 13.8154C6.57453 13.549 6.6664 13.258 6.68916 12.967ZM3.30838 23.3473C3.58976 23.5711 4.12619 23.6578 4.95891 23.3704C4.72056 23.1812 4.42955 23.0135 4.07761 22.8706C3.62113 22.6854 3.33436 22.6973 3.19438 22.805C3.13387 22.8516 3.10593 22.9292 3.11147 23.013C3.11892 23.1258 3.18397 23.2484 3.30838 23.3473ZM8.60767 34.1764C8.83177 34.1118 9.04853 34.0175 9.24754 33.9025C9.72245 33.6281 10.0794 33.2547 10.1712 32.9098C10.2176 32.7354 10.1619 32.5606 9.957 32.4241C9.7037 32.2553 9.43769 32.2882 9.22088 32.4508C9.03596 32.5895 8.87486 32.8132 8.76138 33.0931C8.64063 33.3913 8.5791 33.7454 8.60371 34.1242L8.60767 34.1764ZM19.3389 44.2664C19.9646 43.4653 19.8492 42.7535 19.3209 42.1288C18.7941 42.7509 18.6882 43.4623 19.3389 44.2664ZM30.0813 34.1764L30.0852 34.1242C30.1098 33.7454 30.0483 33.3913 29.9275 33.0931C29.814 32.8132 29.6529 32.5895 29.4679 32.4508C29.2512 32.2882 28.9852 32.2553 28.7319 32.4241C28.527 32.5606 28.4712 32.7354 28.5176 32.9098C28.6095 33.2547 28.9664 33.6282 29.4413 33.9025C29.6404 34.0175 29.8572 34.1119 30.0813 34.1764ZM34.6113 22.8706C34.2593 23.0135 33.9684 23.1812 33.73 23.3704C34.5627 23.6578 35.0991 23.5711 35.3805 23.3473C35.5049 23.2484 35.57 23.1258 35.5774 23.013C35.5829 22.9292 35.555 22.8516 35.4945 22.805C35.3545 22.6973 35.0677 22.6853 34.6113 22.8706ZM36.3001 31.3194C36.147 31.2482 35.9845 31.1974 35.8169 31.1693C35.5278 31.1208 35.2226 31.1394 34.9241 31.2365C34.6249 31.3337 34.3671 31.498 34.1621 31.7069C34.043 31.8283 33.9414 31.9646 33.8595 32.1114C34.0126 32.1826 34.1752 32.2334 34.3428 32.2615C34.632 32.3101 34.9371 32.2915 35.2356 32.1944C35.5347 32.0972 35.7925 31.9329 35.9975 31.7239C36.1166 31.6026 36.2182 31.4663 36.3001 31.3194ZM30.8169 38.1716C30.917 38.1389 31.013 38.0959 31.1034 38.0436C31.0348 37.965 30.958 37.8934 30.874 37.8302C30.687 37.6895 30.4639 37.5903 30.2164 37.5493C29.968 37.508 29.7238 37.5299 29.5001 37.603C29.4 37.6357 29.3041 37.6787 29.2137 37.731C29.2823 37.8096 29.3591 37.8812 29.443 37.9443C29.6301 38.0851 29.8532 38.1842 30.1007 38.2253C30.349 38.2665 30.5932 38.2447 30.8169 38.1716ZM35.2388 27.7991C35.0797 27.8555 34.9281 27.9329 34.7888 28.0302C34.5485 28.198 34.3436 28.4251 34.1983 28.7036C34.0532 28.9817 33.9844 29.2795 33.9844 29.5727C33.9843 29.7422 34.0078 29.9111 34.0533 30.0746C34.2124 30.0182 34.3639 29.9407 34.5032 29.8435C34.7436 29.6757 34.9485 29.4486 35.0937 29.1701C35.2388 28.892 35.3076 28.5942 35.3076 28.301C35.3077 28.1314 35.2842 27.9625 35.2388 27.7991ZM35.0012 18.2373C35.0602 18.0794 35.0981 17.9135 35.1131 17.7445C35.139 17.4524 35.0966 17.149 34.9762 16.8576C34.857 16.5693 34.6733 16.3258 34.4484 16.1371C34.3485 16.0532 34.2408 15.9803 34.1274 15.9191C34.0886 15.9095 34.0499 15.8992 34.0115 15.888C33.9572 16.0391 33.9221 16.1971 33.9078 16.3581C33.8819 16.6502 33.9243 16.9536 34.0447 17.245C34.1639 17.5333 34.3477 17.7768 34.5725 17.9656C34.7037 18.0756 34.8481 18.1668 35.0012 18.2373ZM32.0279 12.4597C31.9961 12.6256 31.9864 12.7962 31.9997 12.967C32.0225 13.2581 32.1144 13.5491 32.2808 13.8154C32.4476 14.0822 32.6686 14.2922 32.9195 14.4398C33.0537 14.5187 33.1967 14.5803 33.345 14.6238C33.3659 14.5566 33.3892 14.49 33.4148 14.4244C33.4224 14.3263 33.4224 14.2273 33.4147 14.1283C33.392 13.8371 33.3001 13.5461 33.1336 13.2797C32.9668 13.0129 32.7458 12.8029 32.4949 12.6553C32.3483 12.5692 32.191 12.5035 32.0279 12.4597Z" fill="#2B2A29"/>
<path fill-rule="evenodd" clip-rule="evenodd" d="M19.3994 0L19.9518 1.35195L21.4083 1.45954L20.2933 2.40274L20.641 3.82121L19.3994 3.05222L18.1579 3.82121L18.5055 2.40274L17.3905 1.45954L18.8469 1.35195L19.3994 0Z" fill="#2B2A29"/>
<path fill-rule="evenodd" clip-rule="evenodd" d="M12.2913 1.90479L13.4456 2.79928L14.7608 2.16429L14.2668 3.53863L15.277 4.59315L13.8173 4.54797L13.1267 5.83473L12.7185 4.43246L11.2812 4.17324L12.4887 3.35175L12.2913 1.90479Z" fill="#2B2A29"/>
<path fill-rule="evenodd" clip-rule="evenodd" d="M7.08765 7.10864L8.53461 7.3061L9.35611 6.09863L9.61542 7.53578L11.0176 7.94396L9.73093 8.6347L9.77611 10.0943L8.7215 9.08405L7.34715 9.57819L7.98224 8.26302L7.08765 7.10864Z" fill="#2B2A29"/>
<path fill-rule="evenodd" clip-rule="evenodd" d="M26.5075 1.90479L26.31 3.35175L27.5175 4.17324L26.0803 4.43246L25.6721 5.83473L24.9814 4.54797L23.5217 4.59315L24.532 3.53863L24.038 2.16429L25.3531 2.79928L26.5075 1.90479Z" fill="#2B2A29"/>
<path fill-rule="evenodd" clip-rule="evenodd" d="M31.7112 7.10864L30.8166 8.26302L31.4516 9.57819L30.0773 9.08405L29.0227 10.0943L29.0679 8.6347L27.7811 7.94396L29.1834 7.53578L29.4427 6.09863L30.2641 7.3061L31.7112 7.10864Z" fill="#2B2A29"/>
<path fill-rule="evenodd" clip-rule="evenodd" d="M17.973 14.2303C17.973 12.2682 20.6219 12.2682 20.6219 14.2303H22.1115C22.1115 10.4239 16.4833 10.4239 16.4833 14.2303C16.4833 17.569 20.6984 18.2587 20.6984 20.6287C20.6984 22.5908 17.9475 22.5908 17.9475 20.6287H16.4579C16.4579 24.4351 22.1881 24.4351 22.1881 20.6287C22.1881 17.29 17.973 16.6003 17.973 14.2303Z" fill="#2B2A29"/>
<path fill-rule="evenodd" clip-rule="evenodd" d="M87.7399 15.2992H90.6186V25.6111H92.0324V15.2992H94.9112V13.9688H87.7399V15.2992Z" fill="#2B2A29"/>
<path fill-rule="evenodd" clip-rule="evenodd" d="M80.866 25.6111H86.4059V24.2807H82.2797V13.9688H80.866V25.6111Z" fill="#2B2A29"/>
<path fill-rule="evenodd" clip-rule="evenodd" d="M55.7687 25.6111H57.1824V17.9517L60.1021 22.6842H60.6667L63.5863 17.9517V25.6111H65.0001V13.9688H64.3051L60.3844 20.3238L56.4637 13.9688H55.7687V25.6111Z" fill="#2B2A29"/>
<path fill-rule="evenodd" clip-rule="evenodd" d="M47.1851 16.6258C47.1851 14.6852 49.805 14.6852 49.805 16.6258H51.2783C51.2783 12.8611 45.7118 12.8611 45.7118 16.6258C45.7118 19.9278 49.8807 20.61 49.8807 22.9539C49.8807 24.8945 47.16 24.8945 47.16 22.9539H45.6866C45.6866 26.7186 51.354 26.7186 51.354 22.9539C51.354 19.6519 47.1851 18.9697 47.1851 16.6258Z" fill="#2B2A29"/>
<path fill-rule="evenodd" clip-rule="evenodd" d="M72.5399 13.9688L68.4751 25.6111H69.9909L70.5462 24.0086H75.32L75.8754 25.6111H77.3911L73.3264 13.9688H72.5399ZM70.984 22.7453L72.9331 17.1212L74.8822 22.7453H70.984Z" fill="#2B2A29"/>
<path fill-rule="evenodd" clip-rule="evenodd" d="M96.8729 19.7899C96.8729 23.3325 98.8964 25.7774 101.869 25.7774C104.842 25.7774 107 23.2492 107 19.7899C107 16.2472 104.884 13.8022 101.869 13.8022C98.8548 13.8022 96.8729 16.4135 96.8729 19.7899ZM98.3698 19.7899C98.3698 17.0788 99.7612 15.1329 101.869 15.1329C103.977 15.1329 105.503 17.0788 105.503 19.7899C105.503 22.4177 104.044 24.4468 101.869 24.4468C99.6947 24.4468 98.3698 22.4344 98.3698 19.7899Z" fill="#2B2A29"/>
<path d="M53.2627 33.954H53.3444C53.718 33.954 54.1732 33.9657 54.4184 33.9657C55.9767 33.9657 56.7588 33.0201 56.7588 31.8704C56.7588 30.7905 56.0993 29.8509 54.465 29.8509C54.1673 29.8509 53.5837 29.8684 53.3385 29.8684H53.2627V33.954ZM54.4534 30.5221C55.4281 30.5221 56.0001 31.0474 56.0001 31.8704C56.0001 32.7342 55.4281 33.2945 54.4416 33.2945C54.3424 33.2945 54.179 33.2945 53.9806 33.2828V30.5396C54.144 30.5279 54.2841 30.5221 54.4534 30.5221ZM57.897 33.954H60.3192V33.2828H58.6149V32.2264H60.0857V31.5552H58.6149V30.5454H60.2608V29.8742H57.897V33.954ZM65.0527 33.954V29.8742H64.3815V32.7128L62.1343 29.8742H61.5624V33.954H62.2335V31.1272L64.4807 33.954H65.0527ZM65.9865 30.5454H67.3114V33.954H68.0293V30.5454H69.3543V29.8742H65.9865V30.5454ZM69.401 33.954H70.1246L70.5507 32.9093H72.2959L72.722 33.954H73.4866L71.7589 29.8567H71.1286L69.401 33.954ZM71.4262 30.7847L72.0216 32.2381H70.825L71.4262 30.7847ZM74.4088 33.954H76.9652V33.2828H75.1267V29.8742H74.4088V33.954ZM81.9146 33.0202C81.6345 33.2361 81.2901 33.347 80.9457 33.347C80.1111 33.347 79.5333 32.7634 79.5333 31.9112C79.5333 31.024 80.1053 30.4754 80.864 30.4754C81.2726 30.4754 81.5411 30.5863 81.7862 30.7497L82.1073 30.2186C81.8387 29.9734 81.3951 29.8042 80.864 29.8042C79.5158 29.8042 78.7745 30.738 78.7745 31.9112C78.7745 33.1836 79.6325 34.0182 80.8816 34.0182C81.4127 34.0182 81.9322 33.8315 82.1889 33.5572L81.9146 33.0202ZM83.2104 33.954H85.7668V33.2828H83.9283V29.8742H83.2104V33.954ZM86.7999 33.954H87.5178V29.8742H86.7999V33.954ZM92.5373 33.954V29.8742H91.866V32.7128L89.6189 29.8742H89.047V33.954H89.7181V31.1272L91.9652 33.954H92.5373ZM94.0664 33.954H94.7843V29.8742H94.0664V33.954ZM99.1501 33.0202C98.8699 33.2361 98.5255 33.347 98.1812 33.347C97.3466 33.347 96.7687 32.7634 96.7687 31.9112C96.7687 31.024 97.3407 30.4754 98.0995 30.4754C98.508 30.4754 98.7765 30.5863 99.0217 30.7497L99.3427 30.2186C99.0742 29.9734 98.6306 29.8042 98.0995 29.8042C96.7512 29.8042 96.01 30.738 96.01 31.9112C96.01 33.1836 96.868 34.0182 98.117 34.0182C98.6481 34.0182 99.1676 33.8315 99.4244 33.5572L99.1501 33.0202Z" fill="#2B2A29"/>
</svg>
