<svg width="111" height="27" viewBox="0 0 111 27" fill="none" xmlns="http://www.w3.org/2000/svg">
<g clip-path="url(#clip0_56_170)">
<path d="M39.5022 10.1289V11.6024H39.5472C40.0774 10.8135 40.9576 9.88439 42.9086 9.88439C44.4265 9.88439 45.5908 10.657 46.0899 11.824H46.1349C46.5611 11.234 47.0498 10.7874 47.5973 10.4712C48.2453 10.0963 48.9661 9.88113 49.8741 9.88113C51.929 9.88113 53.7484 11.2177 53.7484 14.5884V20.9811H50.6156V15.035C50.6156 13.3268 49.9988 12.3391 48.7166 12.3391C47.7775 12.3391 47.0948 12.9324 46.8349 13.6626C46.7448 13.9136 46.7032 14.2559 46.7032 14.5428V20.9844H43.5705V14.7938C43.5705 13.3431 42.9779 12.3358 41.7131 12.3358C40.7012 12.3358 40.067 13.0856 39.8071 13.7278C39.6962 14.0016 39.6616 14.3179 39.6616 14.6145V20.9811H36.5254V10.1289H39.5022ZM69.9178 10.1289V12.1761H70.0045C70.5797 10.6113 71.9451 9.88439 73.1441 9.88439C73.4456 9.88439 73.6119 9.9072 73.8545 9.95284V12.7955C73.5669 12.7564 73.3 12.7172 72.9258 12.7172C71.5674 12.7172 70.6213 13.4605 70.3822 14.6243C70.3302 14.8655 70.3129 15.1263 70.3129 15.4262V20.9844H67.097V10.1289H69.9178ZM78.2209 6.5332V9.94958H80.9378V12.714H78.2209V16.7921C78.2209 18.1124 78.5778 18.7513 79.6382 18.7513C80.1372 18.7513 80.5046 18.6926 80.8234 18.6177L80.865 20.9094C80.4387 21.0593 79.5308 21.2223 78.609 21.2223C77.5243 21.2223 76.6199 20.867 76.0689 20.3161C75.4382 19.6869 75.1471 18.6568 75.1471 17.1898V6.5332H78.2209ZM34.3422 20.9811H31.2234V6.5332H34.3422V20.9811ZM26.0253 17.1051C26.0253 17.3039 26.008 17.5126 25.949 17.6919C25.7065 18.4449 24.8782 19.0806 23.8456 19.0806C22.9827 19.0806 22.2965 18.6209 22.2965 17.6462C22.2965 16.1564 24.0431 15.7424 26.0287 15.7522V17.1051H26.0253ZM29.1407 14.5069C29.1407 12.0457 28.0248 9.88439 24.251 9.88439C22.3139 9.88439 20.7752 10.3962 19.9366 10.8526L20.55 12.8281C21.3158 12.3717 22.5391 11.9968 23.6965 11.9968C25.6129 11.9935 25.9248 13.0172 25.9248 13.6724V13.8289C21.749 13.8224 19.1118 15.1817 19.1118 17.9527C19.1118 19.6445 20.4529 21.2289 22.7886 21.2289C24.2267 21.2289 25.4258 20.691 26.1466 19.8271H26.2159C26.2159 19.8271 26.6941 21.7015 29.3209 20.9844C29.1822 20.202 29.1372 19.3707 29.1372 18.3699V14.5069H29.1407ZM3.44484 6.5332C3.76712 8.0621 4.68198 12.5021 4.68198 12.5021C5.06664 14.3276 5.4201 16.2412 5.68694 17.7538H5.73546C5.99536 16.1467 6.40427 14.6243 6.84091 12.7401L8.38301 6.5332H11.7964L13.238 12.8998C13.6157 14.6699 13.9172 16.0358 14.1563 17.6821H14.2014C14.4613 16.0195 14.8009 14.5982 15.1717 12.7792L16.5578 6.5332H19.8326L15.7747 20.9811C13.1895 21.5125 12.1984 20.5345 11.8449 18.9828C11.4915 17.4278 10.7984 14.4711 10.7984 14.4711C10.4414 12.8509 10.1642 11.7099 9.97015 10.0474H9.92164C9.64441 11.6936 9.35332 12.8476 8.92361 14.4678L7.2221 20.9844C4.58148 21.4799 3.66662 20.7464 3.16067 18.7546C2.72404 17.0497 0.000244141 6.53646 0.000244141 6.53646H3.44484V6.5332ZM61.8989 17.1051C61.8989 17.3039 61.8816 17.5126 61.8227 17.6919C61.5801 18.4449 60.7519 19.0806 59.7192 19.0806C58.8563 19.0806 58.1702 18.6209 58.1702 17.6462C58.1702 16.1564 59.9167 15.7424 61.9024 15.7522V17.1051H61.8989ZM65.0143 14.5069C65.0143 12.0457 63.8985 9.88439 60.1247 9.88439C58.1875 9.88439 56.6489 10.3962 55.8103 10.8526L56.4236 12.8281C57.1895 12.3717 58.4128 11.9968 59.5702 11.9968C61.4831 11.9935 61.7984 13.0172 61.7984 13.6724V13.8289C57.6261 13.8224 54.989 15.1817 54.989 17.9527C54.989 19.6445 56.3335 21.2289 58.6657 21.2289C60.1004 21.2289 61.3029 20.691 62.0202 19.8271H62.093C62.093 19.8271 62.5712 21.7015 65.198 20.9844C65.0594 20.202 65.0143 19.3707 65.0143 18.3699V14.5069Z" fill="#041E42"/>
<path d="M93.5805 16.005C93.8879 16.5326 93.8672 17.1215 93.539 17.3904L87.8672 21.3085C87.2765 21.6455 86.3922 21.237 85.8913 20.3826C85.387 19.5247 85.4768 18.5682 86.0675 18.2312L92.3473 15.3514C92.7411 15.2016 93.2731 15.4773 93.5805 16.005ZM101.045 16.005C101.356 15.4773 101.884 15.205 102.278 15.348L108.562 18.2278C109.152 18.5648 109.239 19.5213 108.738 20.3792C108.233 21.2336 107.346 21.6386 106.758 21.3051L101.087 17.387C100.762 17.1215 100.738 16.5292 101.045 16.005ZM97.3111 18.1291C97.9294 18.1291 98.4372 18.4423 98.5062 18.8542L99.1176 25.6554C99.1176 26.3294 98.3197 26.8809 97.3145 26.8809C96.3128 26.8809 95.5114 26.3294 95.5114 25.6554L96.1194 18.8542C96.1884 18.4423 96.6962 18.1291 97.3111 18.1291ZM101.087 10.3747L106.758 6.45326C107.346 6.11626 108.233 6.52134 108.738 7.37916C109.239 8.23697 109.152 9.19351 108.562 9.53051L102.278 12.4137C101.884 12.5567 101.353 12.2844 101.045 11.7567C100.738 11.2291 100.762 10.6402 101.087 10.3747ZM92.3473 12.4137L86.0675 9.53051C85.4803 9.19351 85.3905 8.23697 85.8913 7.37916C86.3922 6.52134 87.2799 6.11626 87.8672 6.45326L93.539 10.3747C93.8672 10.6368 93.8879 11.2291 93.5805 11.7567C93.2731 12.2844 92.7411 12.5567 92.3473 12.4137ZM96.1194 8.90757L95.5114 2.10631C95.5114 1.43231 96.3093 0.880859 97.3145 0.880859C98.3197 0.880859 99.1176 1.43231 99.1176 2.10631L98.5062 8.90757C98.4372 9.31605 97.9294 9.63263 97.3111 9.63263C96.6962 9.63263 96.1884 9.31605 96.1194 8.90757ZM110.271 21.2812V21.111H110.427C110.479 21.111 110.513 21.1451 110.513 21.1961C110.513 21.2438 110.479 21.2812 110.427 21.2812H110.271ZM110.144 21.591C110.144 21.608 110.157 21.625 110.178 21.625H110.244C110.261 21.625 110.278 21.608 110.278 21.591V21.397H110.385L110.472 21.6012C110.479 21.6148 110.489 21.625 110.503 21.625H110.582C110.606 21.625 110.624 21.6012 110.613 21.5774C110.582 21.5161 110.551 21.4514 110.52 21.3868C110.572 21.3697 110.651 21.3187 110.651 21.1961C110.651 21.0668 110.544 20.9919 110.437 20.9919H110.178C110.161 20.9919 110.144 21.0089 110.144 21.0259V21.591ZM109.864 21.3085C109.864 21.0327 110.092 20.8081 110.372 20.8081C110.651 20.8081 110.879 21.0293 110.879 21.3085C110.879 21.5842 110.655 21.8089 110.372 21.8089C110.088 21.8089 109.864 21.5842 109.864 21.3085ZM109.743 21.3085C109.743 21.6489 110.023 21.928 110.372 21.928C110.717 21.928 111 21.6489 111 21.3085C111 20.9681 110.717 20.6889 110.372 20.6889C110.023 20.6889 109.743 20.9681 109.743 21.3085Z" fill="#FFC124"/>
</g>
<defs>
<clipPath id="clip0_56_170">
<rect width="111" height="26" fill="white" transform="translate(0.000244141 0.880859)"/>
</clipPath>
</defs>
</svg>
